<svg width="215" height="215" viewBox="0 0 215 215" fill="none" xmlns="http://www.w3.org/2000/svg">
<path d="M211.758 133.506C197.4 191.095 139.072 226.143 81.4756 211.782C23.9033 197.424 -11.1447 139.092 3.2198 81.5063C17.5709 23.9104 75.8991 -11.1409 133.478 3.21689C191.071 17.5747 226.115 75.913 211.758 133.506Z" fill="url(#paint0_linear_107_289)"/>
<path d="M154.884 92.186C157.024 77.8819 146.133 70.1924 131.241 65.0627L136.072 45.686L124.277 42.7466L119.574 61.6126C116.473 60.84 113.289 60.111 110.124 59.3888L114.861 40.3984L103.073 37.459L98.239 56.8289C95.6724 56.2444 93.1529 55.6666 90.7073 55.0586L90.7208 54.9981L74.4548 50.9367L71.3172 63.5342C71.3172 63.5342 80.0683 65.5397 79.8835 65.664C84.6605 66.8566 85.5239 70.0177 85.3794 72.5238L79.8768 94.598C80.206 94.682 80.6327 94.8029 81.103 94.9911C80.7099 94.8936 80.29 94.7861 79.8566 94.682L72.1436 125.605C71.5591 127.056 70.0776 129.233 66.7384 128.406C66.856 128.578 58.1654 126.267 58.1654 126.267L52.3101 139.768L67.6589 143.594C70.5143 144.31 73.3127 145.059 76.0673 145.764L71.1862 165.363L82.9674 168.302L87.8015 148.912C91.0197 149.785 94.1439 150.592 97.2009 151.351L92.3836 170.65L104.178 173.59L109.059 154.028C129.172 157.834 144.296 156.299 150.661 138.108C155.791 123.461 150.406 115.013 139.824 109.503C147.531 107.726 153.336 102.657 154.884 92.186ZM127.936 129.975C124.291 144.622 99.6297 136.704 91.6345 134.719L98.1113 108.754C106.107 110.75 131.745 114.7 127.936 129.975ZM131.584 91.9744C128.258 105.298 107.732 98.5284 101.074 96.8689L106.946 73.3199C113.605 74.9795 135.047 78.0768 131.584 91.9744Z" fill="white" fill-opacity="0.92"/>
<defs>
<linearGradient id="paint0_linear_107_289" x1="107.487" y1="0" x2="107.487" y2="215" gradientUnits="userSpaceOnUse">
<stop stop-color="#FF1616"/>
<stop offset="1" stop-color="#5C1513"/>
</linearGradient>
</defs>
</svg>
