<svg width="232" height="204" viewBox="0 0 232 204" fill="none" xmlns="http://www.w3.org/2000/svg">
<path d="M59.1331 0.34201C58.6211 0.517365 57.9462 0.774551 57.6436 0.914825C57.3411 1.04343 46.1812 7.56665 32.8569 15.4109C19.5326 23.2434 8.05859 29.9888 7.34873 30.3863C5.61483 31.38 4.67223 32.093 3.63655 33.2036C1.79791 35.1676 0.657488 37.5174 0.157099 40.3698C-0.0523663 41.574 -0.0523663 100.914 0.157099 102.118C0.680761 105.146 2.03065 107.835 4.1253 110.021C5.55664 111.517 6.42941 112.137 10.6304 114.592C32.7056 127.475 56.4916 141.316 57.0967 141.62C60.7158 143.444 65.3124 143.514 69.5133 141.819C70.3163 141.503 75.6576 138.44 87.3993 131.578C96.6041 126.189 109.416 118.719 115.852 114.978C122.287 111.225 134.971 103.825 144.025 98.5294C153.078 93.2454 160.828 88.7329 161.247 88.5225C163.098 87.5756 165.285 87.0846 167.578 87.0846C169.894 87.0846 171.849 87.4704 173.92 88.3354C174.932 88.7446 200.918 103.849 202.326 104.831C203.338 105.544 205.165 107.414 205.863 108.466C206.957 110.115 207.714 111.892 208.226 114.008C208.412 114.779 208.424 116.147 208.458 131.508C208.505 149.687 208.517 149.394 207.842 151.615C207.423 153.03 206.41 155.017 205.526 156.198C204.642 157.379 203.129 158.84 201.942 159.658C200.894 160.383 176.282 175.101 175.107 175.709C171.372 177.638 166.484 177.697 162.213 175.861C161.306 175.464 135.89 160.699 134.226 159.6C132.597 158.524 130.77 156.525 129.758 154.713C129.129 153.579 128.617 152.27 128.245 150.902L127.908 149.687L127.873 138.838C127.861 132.876 127.803 128.001 127.756 128.001C127.71 128.001 122.543 130.994 116.271 134.641L104.866 141.269V152.083C104.866 164.031 104.843 163.668 105.623 166.018C106.554 168.812 108.637 171.629 111.057 173.383C111.907 174.003 159.141 201.615 161.422 202.831C162.004 203.147 162.842 203.532 163.272 203.696L164.075 204L168.509 203.965L172.942 203.93L174.223 203.404C175.177 203.006 181.856 199.172 200.231 188.452C213.835 180.526 225.32 173.792 225.763 173.5C228.777 171.466 231.034 167.947 231.779 164.101C231.988 162.978 232 161.996 232 132.443C232 102.948 231.988 101.896 231.779 100.797C231.383 98.7749 230.743 97.1617 229.614 95.4198C228.811 94.1806 226.728 92.0647 225.483 91.223C224.401 90.4865 176.119 62.3361 174.886 61.7165C172.198 60.3838 168.742 59.9863 165.472 60.6526C164.157 60.9215 162.574 61.4593 161.585 61.9503C161.236 62.1373 153.346 66.7784 144.071 72.2729C129.839 80.6899 125.452 83.2267 115.98 88.4874C105.32 94.4027 103.889 95.2328 87.8182 104.912C78.5087 110.524 70.5257 115.293 70.0719 115.527C66.8019 117.164 62.438 117.351 58.5397 116.018C57.8414 115.773 57.0269 115.457 56.7359 115.305C55.7235 114.791 29.5753 98.8685 28.8073 98.2956C25.9446 96.168 23.815 92.6258 23.175 88.9083C22.9073 87.3534 22.9073 55.1465 23.175 53.58C23.815 49.8274 25.9446 46.3787 29.0516 44.0406C29.8895 43.4093 55.4908 28.3872 57.1549 27.5455C60.7158 25.7569 65.6033 25.7218 69.7228 27.452C70.3977 27.7442 75.4249 30.7253 84.0828 35.9859C91.4024 40.4283 97.7096 44.2861 98.1053 44.555C100.316 46.063 102.516 49.0909 103.458 51.9199C104.18 54.0943 104.145 53.5215 104.215 65.586L104.285 76.6334L115.689 70.0049L127.093 63.3765L127.128 52.2239C127.151 40.0893 127.163 40.2529 126.499 38.1604C126.057 36.7809 125.15 35.0157 124.312 33.8934C123.451 32.7477 121.949 31.263 120.867 30.4798C120.029 29.8836 72.0269 1.53442 70.8283 0.926529C68.9315 -0.032074 69.1177 -0.00871277 64.3349 0.00297546L60.0641 0.014679L59.1331 0.34201Z" fill="url(#paint0_linear_107_486)"/>
<defs>
<linearGradient id="paint0_linear_107_486" x1="-5.40197" y1="11.3966" x2="236.031" y2="179.872" gradientUnits="userSpaceOnUse">
<stop stop-color="#FF1616"/>
<stop offset="0.935551" stop-color="#5C1513"/>
</linearGradient>
</defs>
</svg>
