<svg width="217" height="189" viewBox="0 0 217 189" fill="none" xmlns="http://www.w3.org/2000/svg">
<path d="M38.339 115.326C39.7081 114.536 41.3617 114.304 42.9364 114.725L185.742 152.99C188.352 153.689 188.813 157.189 186.474 158.539L150.705 179.19C149.336 179.981 147.682 180.213 146.107 179.791L3.30126 141.526C0.6917 140.827 0.230818 137.328 2.56979 135.977L38.339 115.326Z" fill="url(#paint0_linear_107_482)"/>
<path d="M66.5614 9.99865C67.9755 9.22023 69.6291 8.98817 71.1588 9.39807L213.965 47.6628C216.574 48.3621 217.035 51.8611 214.696 53.2116L178.927 73.8629C177.558 74.6534 175.904 74.8854 174.33 74.4635L31.5237 36.1987C28.9141 35.4995 28.4532 32.0004 30.7922 30.65L66.5614 9.99865Z" fill="url(#paint1_linear_107_482)"/>
<path d="M173.345 94.6944C172.555 93.3252 171.239 92.2975 169.664 91.8755L26.8581 53.6108C24.2486 52.9115 22.0999 55.7114 23.4503 58.0504L44.1016 93.8195C44.8921 95.1887 46.2081 96.2164 47.7828 96.6384L190.589 134.903C193.198 135.602 195.347 132.803 193.997 130.464L173.345 94.6944Z" fill="url(#paint2_linear_107_482)"/>
<defs>
<linearGradient id="paint0_linear_107_482" x1="38.3756" y1="99.7117" x2="150.39" y2="181.083" gradientUnits="userSpaceOnUse">
<stop stop-color="#FF0000"/>
<stop offset="1" stop-color="#5C1513"/>
</linearGradient>
<linearGradient id="paint1_linear_107_482" x1="37.9543" y1="0.500947" x2="205.692" y2="90.7755" gradientUnits="userSpaceOnUse">
<stop stop-color="#FF0000"/>
<stop offset="1" stop-color="#5C1513"/>
</linearGradient>
<linearGradient id="paint2_linear_107_482" x1="28.6865" y1="47.687" x2="238.933" y2="156.585" gradientUnits="userSpaceOnUse">
<stop stop-color="#FF0000"/>
<stop offset="1" stop-color="#5C1513"/>
</linearGradient>
</defs>
</svg>
