<svg width="128" height="128" viewBox="0 0 128 128" fill="none" xmlns="http://www.w3.org/2000/svg">
<g clip-path="url(#clip0_107_400)">
<path d="M24.7415 28.2204C24.5627 28.4049 24.422 28.6229 24.3274 28.8618C24.2329 29.1008 24.1863 29.356 24.1905 29.6129C24.1946 29.8698 24.2494 30.1234 24.3516 30.3592C24.4539 30.5949 24.6016 30.8082 24.7863 30.9869L42.3291 47.9807C42.7019 48.3416 43.2028 48.5397 43.7216 48.5313C44.2404 48.5229 44.7346 48.3087 45.0955 47.936C45.4564 47.5632 45.6545 47.0623 45.6461 46.5435C45.6377 46.0247 45.4236 45.5304 45.0508 45.1695L27.4982 28.1758C27.126 27.8176 26.6272 27.6212 26.1106 27.6296C25.5941 27.638 25.1019 27.8504 24.7415 28.2204V28.2204ZM80.6937 36.8487L80.3036 12.7328C80.2952 12.2143 80.0812 11.7203 79.7086 11.3596C79.336 10.9989 78.8354 10.801 78.3169 10.8094C77.7983 10.8177 77.3044 11.0318 76.9437 11.4043C76.583 11.7769 76.385 12.2775 76.3934 12.7961L76.7836 36.912C76.7919 37.4305 77.006 37.9245 77.3786 38.2852C77.7511 38.6459 78.2518 38.8438 78.7703 38.8354C79.2888 38.8271 79.7827 38.613 80.1435 38.2404C80.5042 37.8679 80.7021 37.3673 80.6937 36.8487ZM49.8199 2.70489C49.7517 2.45688 49.6353 2.22474 49.4773 2.02172C49.3194 1.8187 49.123 1.64877 48.8994 1.52164C48.6758 1.39451 48.4294 1.31267 48.1741 1.28079C47.9189 1.2489 47.6599 1.2676 47.4119 1.33582C47.1639 1.40403 46.9318 1.52043 46.7287 1.67836C46.5257 1.83629 46.3558 2.03266 46.2287 2.25626C46.1015 2.47986 46.0197 2.72631 45.9878 2.98154C45.9559 3.23677 45.9746 3.49578 46.0428 3.74379L52.2876 27.1099C52.3558 27.3579 52.4722 27.59 52.6302 27.793C52.7881 27.9961 52.9845 28.166 53.2081 28.2931C53.4317 28.4202 53.6781 28.5021 53.9334 28.534C54.1886 28.5659 54.4476 28.5472 54.6956 28.4789C54.9436 28.4107 55.1757 28.2943 55.3788 28.1364C55.5818 27.9785 55.7517 27.7821 55.8788 27.5585C56.006 27.3349 56.0878 27.0884 56.1197 26.8332C56.1516 26.578 56.1329 26.319 56.0647 26.071L49.8199 2.70489ZM25.1694 72.801C31.4507 81.4996 31.466 85.4692 31.4892 89.3213C31.6489 117.323 51.1931 125.66 62.7295 126.168C63.6101 126.202 64.461 126.218 65.3115 126.204C70.642 126.181 75.9072 125.028 80.7593 122.821C85.6115 120.614 89.9404 117.402 93.4604 113.399L99.7491 106.238L99.8546 106.109L102.975 102.548C104.081 101.404 104.859 99.9831 105.227 98.4344C105.594 96.8857 105.537 95.2666 105.063 93.7474C104.588 92.2282 103.712 90.8651 102.528 89.8013C101.344 88.7374 99.8957 88.0123 98.3345 87.7021C98.6219 86.5876 98.6641 85.424 98.4583 84.2916C98.2524 83.1592 97.8034 82.0849 97.1421 81.1428C96.4809 80.2008 95.6231 79.4134 94.6281 78.8349C93.633 78.2564 92.5244 77.9007 91.3785 77.7922C91.682 76.9092 91.8324 75.9808 91.823 75.0472C91.7954 73.0084 91.0606 71.0425 89.7442 69.4854C88.4278 67.9283 86.6115 66.8768 84.6057 66.5105L95.0398 55.6934C95.8585 54.8506 96.5011 53.853 96.9301 52.7591C97.3591 51.6651 97.5659 50.4967 97.5384 49.322C97.5109 48.1472 97.2497 46.9897 96.7701 45.917C96.2904 44.8443 95.6019 43.8779 94.7447 43.0742C93.8875 42.2705 92.8788 41.6456 91.7774 41.236C90.6761 40.8263 89.5042 40.6402 88.3301 40.6883C87.156 40.7365 86.0033 41.0181 84.9393 41.5166C83.8752 42.0151 82.9211 42.7206 82.1326 43.5918C70.7104 56.1848 56.4907 70.5343 50.8291 72.9432C47.5276 74.3656 46.7088 73.313 44.0697 69.1414C42.2307 65.8694 39.8113 62.9596 36.9297 60.5545C33.503 57.8624 29.5231 57.8485 26.2711 60.5119C22.5942 63.5145 22.1385 68.5869 25.1694 72.801ZM96.5081 91.457C97.1567 91.4441 97.8013 91.5603 98.4045 91.799C99.0077 92.0377 99.5573 92.3941 100.021 92.8473C100.49 93.3068 100.863 93.8543 101.118 94.4584C101.374 95.0625 101.508 95.7113 101.513 96.3673C101.517 97.0234 101.391 97.6738 101.143 98.2811C100.895 98.8885 100.529 99.4408 100.067 99.9063L97.0235 103.368C96.1999 103.773 95.272 103.917 94.3643 103.78C93.4567 103.642 92.6128 103.23 91.9461 102.6L91.7671 102.417C90.955 101.646 90.4575 100.601 90.3708 99.4843C90.2841 98.3678 90.6144 97.2588 91.2978 96.3717L96.1064 91.4049L96.5081 91.457ZM93.4341 82.7653C94.1696 83.4714 94.6115 84.4291 94.6715 85.4469C94.7314 86.4647 94.4051 87.4676 93.7576 88.2553C93.6771 88.3315 93.6032 88.4145 93.5367 88.5033V88.5033L88.0164 94.2051C87.2287 94.5078 86.372 94.5837 85.5433 94.4243C84.7146 94.2649 83.9472 93.8765 83.328 93.3032L83.0896 93.0724C82.3072 92.2857 81.838 91.2411 81.7697 90.1337C81.7014 89.0264 82.0386 87.932 82.7184 87.0552C83.4907 86.4364 86.7235 83.793 88.4394 82.2692C89.2061 81.7878 90.1112 81.5753 91.012 81.6652C91.9128 81.755 92.7581 82.1422 93.4146 82.7656L93.4341 82.7653ZM86.4093 71.6245C86.8773 72.0736 87.2513 72.6115 87.5094 73.2066C87.7675 73.8017 87.9045 74.4423 87.9125 75.0909C87.8105 76.681 87.0991 78.1706 85.9264 79.2493C84.7506 80.3048 82.213 82.409 80.3407 83.9256C79.5358 84.1695 78.6801 84.1926 77.8633 83.9925C77.0464 83.7924 76.2983 83.3765 75.6973 82.7882L75.5681 82.6632C74.6637 81.7868 74.1442 80.5871 74.1238 79.3278C74.1035 78.0686 74.5839 76.8527 75.4595 75.9475L79.9796 71.2787C80.9095 70.5492 82.0722 70.1813 83.2525 70.2431C84.4328 70.3049 85.5508 70.7922 86.3994 71.6149L86.4093 71.6245ZM28.754 63.4931C30.6068 61.9768 32.4944 62.005 34.5147 63.5857C37.038 65.715 39.1535 68.2848 40.7584 71.1701C41.6928 72.8524 42.8564 74.3967 44.2158 75.7587C44.2532 75.8122 44.2932 75.8638 44.3357 75.9132C44.5047 76.0865 48.315 80.1218 44.5989 86.1367C44.3491 86.5773 44.2799 87.0976 44.406 87.588C44.5321 88.0785 44.8436 88.501 45.2749 88.7664C45.7062 89.0319 46.2237 89.1196 46.7184 89.0112C47.2131 88.9028 47.6464 88.6066 47.9272 88.1851C48.981 86.6211 49.6735 84.8421 49.9545 82.9772C50.2355 81.1123 50.098 79.2082 49.5519 77.4031C50.518 77.2549 51.4605 76.9799 52.3547 76.5853C59.9969 73.3034 77.7296 54.2917 85.0115 46.2635C85.4537 45.7708 85.9914 45.373 86.592 45.0944C87.1926 44.8158 87.8435 44.662 88.5053 44.6425C89.1679 44.6214 89.8281 44.7335 90.4466 44.972C91.0652 45.2106 91.6296 45.5708 92.1065 46.0314C92.5735 46.4825 92.947 47.0213 93.2055 47.617C93.464 48.2126 93.6024 48.8534 93.6129 49.5026C93.6235 50.1519 93.5058 50.7968 93.2667 51.4005C93.0276 52.0042 92.6718 52.5548 92.2196 53.0208L72.6382 73.2064C71.8426 74.0243 71.2164 74.9913 70.7955 76.0519C70.3747 77.1125 70.1676 78.2458 70.186 79.3866C70.2045 80.5275 70.4482 81.6535 70.9031 82.7C71.358 83.7464 72.0152 84.6926 72.8368 85.4843L72.9461 85.5901C74.3143 86.9183 76.0858 87.7532 77.981 87.9629C77.663 89.3792 77.7127 90.8533 78.1255 92.245C78.5382 93.6366 79.3003 94.8995 80.339 95.9134L80.4184 95.9805L80.4978 96.0575C82.1092 97.6034 84.2677 98.4476 86.5004 98.4049C86.387 99.6563 86.5559 100.917 86.9946 102.095C87.4334 103.272 88.1307 104.336 89.0354 105.208L89.1847 105.372C90.3339 106.482 91.7731 107.245 93.3368 107.574L90.4565 110.857L90.3798 110.946C86.9406 114.771 82.6851 117.773 77.9285 119.73C73.1719 121.688 68.0359 122.55 62.9008 122.254C57.8567 121.898 52.9795 120.298 48.7061 117.594C49.0091 117.59 49.3219 117.584 49.6347 117.579L50.4657 117.566C55.3483 117.174 59.7677 114.14 63.6667 108.552C63.9478 108.126 64.0508 107.606 63.9537 107.105C63.8567 106.603 63.5673 106.16 63.1474 105.869C62.7276 105.578 62.2106 105.463 61.7071 105.549C61.2035 105.634 60.7534 105.913 60.4529 106.326C57.2711 110.914 53.8205 113.395 50.188 113.698C45.1199 114.113 41.1539 110.119 41.0943 110.061C41.0064 109.972 40.9101 109.892 40.8068 109.822C37.669 105.042 35.4601 98.4484 35.4097 89.2872C35.3846 84.1151 34.8398 79.45 28.3488 70.4811C26.8392 68.4326 26.39 65.4478 28.754 63.4931Z" fill="#FF0000" stroke="#FF0000"/>
<path d="M58.8378 40.9472L54.5272 41.6427L57.7047 44.642L57.0314 48.9552L60.8598 46.8595L64.7539 48.8303L63.9414 44.5411L67.0202 41.4406L62.6894 40.8849L60.7003 37.0059L58.8378 40.9472Z" fill="black"/>
<path d="M64.743 17.3355L66.1108 20.2859L67.6285 17.3964L70.8588 17.0117L68.582 14.6822L69.2147 11.4844L66.2949 12.9299L63.4434 11.3431L63.9161 14.5719L61.5271 16.7911L64.743 17.3355Z" fill="black"/>
<path d="M38.7095 16.4463L36.3174 14.2458L36.0179 17.4872L33.1788 19.0878L36.172 20.3692L36.8202 23.5659L38.9609 21.1063L42.2035 21.4841L40.5253 18.6854L41.8855 15.73L38.7095 16.4463Z" fill="black"/>
</g>
<defs>
<clipPath id="clip0_107_400">
<rect width="125.142" height="125.142" fill="white" transform="translate(0 2.02441) rotate(-0.926862)"/>
</clipPath>
</defs>
</svg>
