<svg width="79" height="73" viewBox="0 0 79 73" fill="none" xmlns="http://www.w3.org/2000/svg">
<path fill-rule="evenodd" clip-rule="evenodd" d="M52.7315 21.3927C52.8045 21.728 53.0058 22.0655 53.0872 22.441C53.757 25.5313 53.4893 27.9654 51.7149 30.6289C50.0747 33.0907 47.2826 34.729 44.2597 34.9486L44.222 42.3253C47.2244 42.379 51.2486 40.8798 53.5135 39.1916C54.3513 38.5671 54.9846 38.006 55.7599 37.3043C57.5343 35.6984 59.7878 31.9969 60.2973 29.4672C60.8748 26.6003 60.8504 26.9627 60.8538 24.3489C60.8556 22.9649 60.005 18.8555 59.3842 18.1238C58.9824 18.1118 56.41 19.4912 56.0491 19.6918C55.504 19.9947 54.8986 20.2303 54.3495 20.5008C54.0905 20.6284 53.7742 20.7886 53.5249 20.9239C53.2078 21.0958 52.9586 21.1604 52.7315 21.3927ZM33.4507 25.801C33.518 25.7095 33.5244 25.8817 33.5189 25.5283C33.5144 25.2425 33.4547 25.4382 33.4707 24.7348C33.4856 24.0778 33.2867 24.2572 31.604 24.2572C30.4934 24.2572 26.5903 24.1788 26.0259 24.3089C25.885 26.1108 26.0576 25.9004 26.6042 25.8958C27.7018 25.8864 33.2005 25.9987 33.4507 25.801ZM37.1875 17.2236C37.5605 17.1455 38.2061 16.62 38.5839 16.4139C38.5615 16.1346 35.31 11.4179 34.7771 10.6097C34.6536 10.4224 34.6074 10.3351 34.4132 10.252C34.1969 10.3514 33.7348 10.6643 33.4897 10.827C32.9527 11.1834 33.2331 11.2959 33.5083 11.7089L37.1875 17.2236ZM27.8391 22.6273L27.8977 22.5202C27.9308 22.431 27.9267 22.4645 27.9553 22.3376C27.9815 22.2214 27.9886 22.0824 28.0183 21.942C28.0624 21.7338 28.1325 21.4905 28.1902 21.271C28.841 18.793 30.0721 16.2796 31.8886 14.44C32.8671 13.449 33.0644 13.7633 32.1579 12.5247C32.0167 12.3317 32.0491 12.3463 31.8381 12.2454C30.7087 12.8191 28.5708 15.8752 27.9218 17.2697C27.2332 18.7495 27.1729 18.7891 26.6892 20.4583C26.5095 21.0785 26.4262 21.5889 26.2908 22.2569C26.1986 22.7117 26.2248 22.6951 26.7584 22.6936C27.0825 22.6927 27.61 22.7512 27.8391 22.6273ZM28.7386 46.6914C28.6249 46.3248 28.2313 46.1767 27.7289 45.7955C27.3698 45.5231 27.0697 45.1184 26.5385 45.0925C24.8879 45.0123 20.9601 45.0967 19.0404 45.0967C18.371 45.0967 15.8655 44.9246 15.5049 45.3311C15.1346 45.7485 15.2537 46.3199 15.7012 46.5842C16.0872 46.8121 16.9543 46.685 17.4797 46.685L28.7386 46.6914ZM42.652 42.2945L42.6455 40.7635L40.2857 40.4766C39.585 40.3537 37.7523 39.7222 37.0421 39.3944C32.8045 37.4378 30.2866 34.6168 28.5917 30.307C28.1367 29.1501 28.0805 28.3194 27.9103 27.7361C27.8548 27.5457 27.8629 27.5464 27.6973 27.5169L26.3163 27.4898C26.3115 30.132 28.1291 33.7831 29.6951 35.747C31.4325 37.9258 33.4901 39.6129 36.2015 40.8446C37.972 41.6489 40.4006 42.3661 42.652 42.2945ZM35.8379 9.50461C35.8735 9.66634 36.1333 10.0053 36.2423 10.1637L36.5818 10.6715C36.7433 10.86 36.6336 10.737 36.7542 10.8388L38.181 10.2925C38.736 10.1162 39.1318 9.99029 39.727 9.81941C42.5853 8.99867 45.5473 9.32602 48.3254 10.1054C49.2517 10.3652 51.1928 11.3182 51.9668 11.8303C52.7411 12.3426 54.2656 13.4819 54.8713 14.2215C55.6797 15.2086 56.5882 16.1998 57.1532 17.3121C57.5926 17.265 58.3359 16.8459 58.6693 16.6411C58.3382 15.5708 56.0596 12.9591 54.9796 12.0168C53.4464 10.6789 51.7001 9.61847 49.7308 8.85174C45.257 7.10989 39.7257 7.45525 35.8379 9.50461ZM15.2894 58.7342C15.3934 59.5661 16.1448 59.4842 16.9334 59.4836C27.7936 59.4745 38.8811 59.4074 49.7091 59.4841C50.1654 59.4874 50.3944 59.5198 50.6746 59.3106C50.911 59.1342 51.1023 58.9171 51.0754 58.589C51.0016 57.6899 49.896 57.8189 49.4739 57.8195L16.699 57.819C16.2233 57.8167 15.1675 57.7594 15.2894 58.7342ZM50.9703 52.5106C51.1096 52.2052 50.9788 51.8706 50.7856 51.672C50.5512 51.4312 50.2113 51.4626 49.7864 51.4645L17.0115 51.4663C16.2316 51.4658 15.4855 51.3278 15.311 52.0701C15.2186 52.4629 15.3683 52.7344 15.6067 52.909C16.0782 53.2544 18.0212 53.1129 18.8843 53.1129L49.3178 53.113C50.2676 53.1134 50.6181 53.2826 50.9703 52.5106ZM50.9526 65.3468C51.2722 64.6806 50.6999 64.1803 49.946 64.1832L17.1676 64.1869C16.3519 64.1868 15.6921 64.0437 15.379 64.6544C15.2025 64.9985 15.2761 65.2813 15.4836 65.5452C15.7241 65.8509 15.9002 65.8365 16.3856 65.839C27.2626 65.8944 38.2655 65.8349 49.1617 65.8364C50.008 65.8365 50.6339 66.0112 50.9526 65.3468ZM42.2096 18.4802C48.3313 17.4957 52.492 24.089 48.7632 29.1653C46.5693 32.1521 42.0479 32.5477 39.3734 30.3722C34.3507 26.2866 37.0868 19.3041 42.2096 18.4802ZM51.8673 25.2047C51.863 18.3377 44.2583 14.2934 38.5411 18.2766C34.2954 21.2346 33.9014 27.4314 37.5556 31.0181C41.9033 35.2857 49.2641 33.6604 51.3496 27.8422C51.5888 27.175 51.8678 26.0293 51.8673 25.2047ZM0 1.34879V65.4694C0.491838 65.9094 0.10527 66.7863 2.18497 66.7802C3.30672 66.7769 4.52879 66.8279 5.65149 66.7665L5.62282 63.5643C3.13631 63.4566 3.29383 64.0296 3.2986 62.5463C3.36007 43.411 3.29869 24.2022 3.2988 5.05581C3.2988 2.75527 2.86322 3.20478 5.54044 3.20478L28.9544 3.20853C29.4702 3.20756 29.4755 3.16562 29.8171 2.95714C31.7248 1.79292 33.5689 0.937301 35.9432 0.204092C35.8085 0.0637752 35.8096 0.0183488 35.3516 0.0274563C35.1682 0.0310949 34.9914 0.0411947 34.8034 0.0411506L3.35547 0.0396302C2.00814 0.0396302 0.709258 -0.294129 0.218349 0.975518C0.0665612 1.36809 0.299593 1.14254 0 1.34879ZM8.14908 72.714C8.1689 72.7263 8.19162 72.7302 8.20093 72.761C8.30941 73.1204 10.5851 72.9678 11.0809 72.9678H45.4161C49.5799 72.9678 53.8268 72.8856 57.9796 72.9667C58.0126 72.5157 58.0489 72.7639 58.156 72.4117C58.3 71.9379 58.207 54.7861 58.2144 53.3656C58.2197 52.3506 58.3123 52.7248 56.9461 51.3628L55.499 49.9311C55.3702 49.7735 55.361 49.8512 55.3498 49.5869C55.291 49.4034 55.3687 49.4835 55.1704 49.3702C55.1579 49.3893 55.1449 49.3973 55.1413 49.4323L55.073 49.9405C55.0959 52.85 55.16 70.1439 55.0337 70.5725L11.2981 70.5837C11.1687 70.0797 11.2587 40.8132 11.2587 40.3747C11.2587 37.4971 11.1462 10.4887 11.3361 10.2146C11.5033 10.0394 16.4515 10.1359 16.6994 10.1359C18.3214 10.1359 20.6345 10.2706 22.1728 10.114C22.5421 9.62143 22.895 9.14429 23.35 8.57514C23.7683 8.05196 24.537 7.36753 24.6065 6.97478C23.1898 6.98859 9.77603 6.87698 9.14972 7.02219C7.6374 7.37289 8.01859 9.4838 8.01859 11.046L8.04056 72.5025C8.08133 72.7037 8.05109 72.676 8.14908 72.714ZM42.4508 45.9198C39.4665 45.9194 35.8952 44.7882 33.3025 43.3548C32.5078 42.9155 31.7436 42.4487 30.9596 41.8709C29.4192 40.7358 28.2791 39.597 27.0294 38.0935C25.5873 36.3585 23.5418 32.6591 23.1336 30.4056C22.9344 29.3055 22.6464 28.2891 22.5524 27.0783C22.2255 22.8667 22.8944 19.5003 24.6699 15.805C25.5769 13.9174 27.2755 11.6072 28.6953 10.2471C29.9748 9.02126 31.4619 7.86985 33.1314 6.89134C34.6425 6.00555 36.9657 5.13529 38.6582 4.71431C40.4548 4.26743 43.9192 4.05418 45.8781 4.33169C50.4607 4.98086 53.2533 6.16593 56.7715 8.90264C58.9239 10.5769 61.6711 14.0725 62.6417 16.5876C62.8399 17.1013 63.037 17.4049 63.1783 17.8999C63.2614 18.1911 63.332 18.3977 63.4357 18.6675C63.5443 18.95 63.542 19.0401 63.6355 19.4207C64.4548 22.7557 64.6629 24.5709 64.2046 28.0098L63.7775 30.0285C63.6052 30.995 62.8954 32.977 62.4735 33.8121C61.6658 35.4109 60.7221 37.0703 59.4844 38.4509L58.3076 39.7659C56.5245 41.4681 54.7142 42.7566 52.3529 43.9431C51.7855 44.2282 49.2876 45.1756 48.6718 45.304C45.6106 45.9423 45.4689 45.9202 42.4508 45.9198ZM78.0345 55.9843V52.1335C77.7768 51.9522 77.8465 51.8291 77.7056 51.5052C77.1696 50.2733 75.8257 49.0922 74.8957 48.1715L67.8371 41.2054C66.9702 40.3416 65.6529 38.8601 64.5944 38.3007C64.373 38.1837 64.2119 38.1462 63.9935 38.0408C63.955 37.6353 64.2462 37.3557 64.4211 37.0727C64.6296 36.7355 64.7419 36.4763 64.9137 36.1614C65.4204 35.2322 65.8534 34.2674 66.2064 33.2473C66.5712 32.193 66.9037 31.2386 67.1403 30.06C67.6278 27.6316 67.892 25.1019 67.5335 22.5406C67.4794 22.1544 67.4364 21.6801 67.3771 21.2874C67.3208 20.9145 67.224 20.6323 67.1653 20.2037C66.7909 17.4703 65.242 14.2338 64.017 12.2614C63.0993 10.7838 62.1749 9.67272 60.9774 8.36964L58.8359 6.38238C54.5423 3.09565 50.2035 1.21474 44.7146 1.00297C42.32 0.910597 39.3858 1.07632 37.1687 1.75071C36.8283 1.85425 36.4835 1.9653 36.0755 2.06582C35.7655 2.14218 35.3913 2.32316 35.0583 2.4375C29.4183 4.37363 24.6067 8.92482 21.8468 14.1467C21.1284 15.5058 20.7577 16.6988 20.2588 18.0882C18.7265 22.3558 19.0847 29.5098 20.6115 33.2059C20.6638 33.3325 20.7522 33.5627 20.8056 33.7046C22.6233 38.536 25.8126 42.2667 30.0928 45.2239C32.6932 47.0205 37.2143 48.7857 40.2683 48.9519C41.1723 49.0011 41.8338 49.1323 42.8409 49.1364C47.1237 49.1538 50.5213 48.4702 54.2266 46.5957L56.0288 45.6686C56.2303 45.9425 56.4062 46.5496 56.9793 47.2907L65.828 56.1234C66.6941 56.9789 67.5315 57.8805 68.3771 58.6372C70.3911 60.4393 73.7488 60.4583 75.856 58.8215C76.5543 58.2791 77.1594 57.5718 77.579 56.8021C77.9697 56.0855 77.7196 56.1508 78.0345 55.9843Z" fill="white"/>
</svg>
