<svg width="116" height="116" viewBox="0 0 116 116" fill="none" xmlns="http://www.w3.org/2000/svg">
<path d="M89.7292 63.8542V52.1146L81.5833 51.3958C81.1042 49.4792 80.3854 47.8021 79.4271 46.125L84.6979 39.8958L76.3125 31.75L70.0833 37.0208C68.4063 36.0625 66.7292 35.3438 64.8125 34.8646L64.0938 26.7188H52.3542L51.6354 34.8646C49.7188 35.3438 48.0417 36.0625 46.3646 37.0208L39.8958 31.75L31.75 39.8958L37.0208 46.125C36.0625 47.8021 35.3438 49.4792 34.8646 51.3958L26.7188 52.1146V63.8542L34.8646 64.5729C35.3438 66.4896 36.0625 68.4063 37.0208 69.8438L31.75 76.3125L40.1354 84.6979L46.3646 79.4271C48.0417 80.3854 49.7188 81.1042 51.6354 81.5833L52.3542 89.7292H64.0938L64.8125 81.5833C66.7292 81.1042 68.4063 80.3854 70.0833 79.4271L76.3125 84.6979L84.6979 76.3125L79.1875 70.0833C80.1458 68.4063 80.8646 66.7292 81.3438 64.8125L89.7292 63.8542Z" stroke="#FF0000" stroke-width="5" stroke-miterlimit="10"/>
<path d="M58.104 48.042C52.5936 48.042 48.0415 52.5941 48.0415 58.1045C48.0415 63.6149 52.5936 68.167 58.104 68.167C63.6144 68.167 68.1665 63.6149 68.1665 58.1045C68.1665 52.5941 63.6144 48.042 58.104 48.042Z" stroke="#FF0000" stroke-width="5" stroke-miterlimit="10"/>
<path d="M58.104 68.167C63.6614 68.167 68.1665 63.6619 68.1665 58.1045C68.1665 52.5471 63.6614 48.042 58.104 48.042C52.5466 48.042 48.0415 52.5471 48.0415 58.1045C48.0415 63.6619 52.5466 68.167 58.104 68.167Z" stroke="#FF0000" stroke-width="5" stroke-miterlimit="10"/>
<path d="M58.1042 10.9062C72.9583 10.9062 86.1354 17.8542 94.7604 28.3958M10.9062 58.1042C10.9062 43.25 17.8542 30.0729 28.3958 21.4479M21.4479 87.5729C30.0729 98.3542 43.25 105.063 58.1042 105.063M87.5729 94.7604C98.3542 86.1354 105.063 72.9583 105.063 58.1042" stroke="#FF0000" stroke-width="5" stroke-miterlimit="10"/>
<path d="M68.4061 3L58.104 10.1875L65.2915 20.4896" stroke="#FF0000" stroke-width="5" stroke-miterlimit="10"/>
<path d="M47.802 113.208L58.1041 106.021L50.9166 95.7188" stroke="#FF0000" stroke-width="5" stroke-miterlimit="10"/>
<path d="M113.208 68.4066L106.021 58.1045L95.7188 65.292" stroke="#FF0000" stroke-width="5" stroke-miterlimit="10"/>
<path d="M3 48.042L10.1875 58.3441L20.4896 51.1566" stroke="#FF0000" stroke-width="5" stroke-miterlimit="10"/>
</svg>
