<svg width="147" height="109" viewBox="0 0 147 109" fill="none" xmlns="http://www.w3.org/2000/svg">
<path d="M2.88525 73.5416C3.49027 73.5415 4.0705 73.3012 4.49831 72.8734C4.92612 72.4456 5.16647 71.8653 5.1665 71.2603C5.1665 70.871 5.191 68.9936 5.21998 68.5001C5.34147 68.003 5.62792 67.5618 6.03254 67.2485C6.43717 66.9352 6.93607 66.7684 7.44775 66.7752H15.9913C16.5416 66.7753 17.0734 66.5764 17.4886 66.2152C17.9037 65.854 18.1743 65.3548 18.2503 64.8098C18.8803 60.3034 20.0788 55.895 21.817 51.6898C22.0296 51.1759 22.0472 50.6021 21.8665 50.0762C21.6858 49.5503 21.3192 49.1085 20.8357 48.8338L13.445 44.6383C13.1883 44.4957 12.9628 44.3029 12.782 44.0715C12.6012 43.8401 12.4687 43.5747 12.3924 43.2911C12.3182 43.0167 12.2998 42.7302 12.3383 42.4486C12.3767 42.1669 12.4713 41.8959 12.6163 41.6514L16.0381 35.8246C16.3515 35.306 16.8554 34.9306 17.4421 34.7787C18.0287 34.6269 18.6515 34.7106 19.1771 35.0121L26.58 39.2137C27.0534 39.4825 27.6074 39.5731 28.1418 39.4692C28.6761 39.3654 29.1558 39.0738 29.494 38.6472C32.3456 35.0529 35.6301 31.8244 39.2728 29.0349C39.7149 28.6964 40.0179 28.2078 40.1248 27.6614C40.2317 27.1149 40.1351 26.5482 39.8532 26.0681L35.5781 18.7905C35.4331 18.5461 35.3386 18.2751 35.3002 17.9936C35.2617 17.7121 35.2801 17.4257 35.3542 17.1514C35.4308 16.8675 35.5635 16.6019 35.7445 16.3702C35.9255 16.1385 36.1511 15.9454 36.408 15.8025L42.3338 12.439C42.8597 12.138 43.4825 12.0545 44.0692 12.2063C44.6558 12.3581 45.1599 12.7333 45.4738 13.2516L49.74 20.517C50.0161 20.9877 50.4519 21.3437 50.9682 21.5204C51.4845 21.6971 52.0471 21.6828 52.5537 21.4799C56.8497 19.7647 61.3406 18.5849 65.9249 17.9673C66.4721 17.8934 66.9739 17.6236 67.3372 17.2079C67.7006 16.7922 67.9009 16.2588 67.9009 15.7067V7.30791C67.912 6.71344 68.1584 6.14764 68.586 5.73453C69.0137 5.32142 69.5876 5.0947 70.1821 5.10407H77.0259C77.6204 5.0947 78.1943 5.32142 78.622 5.73453C79.0496 6.14764 79.296 6.71344 79.3071 7.30791V15.7067C79.3071 16.2588 79.5074 16.7922 79.8708 17.2079C80.2342 17.6236 80.736 17.8934 81.2832 17.9673C85.8675 18.5849 90.3583 19.7647 94.6543 21.4799C95.1609 21.6829 95.7235 21.6974 96.2399 21.5207C96.7563 21.344 97.192 20.9878 97.468 20.517L101.734 13.2516C102.048 12.7333 102.552 12.3581 103.139 12.2062C103.725 12.0542 104.348 12.1376 104.874 12.4385L110.8 15.803C111.057 15.9458 111.283 16.1388 111.464 16.3704C111.645 16.602 111.777 16.8676 111.854 17.1514C111.928 17.4256 111.946 17.7119 111.908 17.9933C111.87 18.2748 111.775 18.5456 111.63 18.7899L107.355 26.0681C107.073 26.5482 106.976 27.1149 107.083 27.6614C107.19 28.2078 107.493 28.6964 107.935 29.0349C111.578 31.8244 114.863 35.0529 117.714 38.6472C118.053 39.0737 118.532 39.3651 119.066 39.4689C119.601 39.5728 120.155 39.4823 120.628 39.2137L128.031 35.0121C128.557 34.7105 129.179 34.6266 129.766 34.7785C130.353 34.9304 130.857 35.3059 131.17 35.8246L134.592 41.652C134.737 41.8963 134.831 42.1673 134.87 42.4488C134.908 42.7304 134.89 43.0167 134.816 43.291C134.739 43.5747 134.607 43.8401 134.426 44.0717C134.245 44.3032 134.02 44.496 133.763 44.6389L126.372 48.8338C125.889 49.1085 125.522 49.5503 125.342 50.0762C125.161 50.6021 125.179 51.1759 125.391 51.6898C127.129 55.8949 128.328 60.3034 128.958 64.8098C129.034 65.3548 129.304 65.854 129.72 66.2152C130.135 66.5764 130.667 66.7753 131.217 66.7752H139.76C140.303 66.7658 140.832 66.9529 141.248 67.302C141.664 67.6512 141.941 68.1389 142.026 68.6755C142.036 68.9908 142.042 71.1306 142.042 71.2603C142.042 71.8653 142.282 72.4456 142.71 72.8734C143.137 73.3012 143.718 73.5416 144.323 73.5416C144.928 73.5416 145.508 73.3012 145.936 72.8734C146.364 72.4456 146.604 71.8653 146.604 71.2603C146.604 71.2347 146.603 68.6644 146.575 68.3503C146.414 66.6597 145.625 65.0911 144.363 63.9546C143.101 62.8181 141.458 62.1965 139.76 62.2127H133.167C132.549 58.6705 131.604 55.193 130.346 51.8246L136.015 48.6071C136.799 48.167 137.487 47.5743 138.038 46.8641C138.589 46.1538 138.992 45.3404 139.223 44.4718C139.456 43.6134 139.514 42.7171 139.394 41.8359C139.274 40.9547 138.979 40.1065 138.526 39.3413L135.104 33.5145C134.18 31.9663 132.687 30.841 130.945 30.3794C129.202 29.9178 127.348 30.1565 125.779 31.0444L120.048 34.2975C117.698 31.5268 115.103 28.9736 112.294 26.669L115.564 21.1007C116.017 20.3355 116.313 19.4872 116.432 18.606C116.552 17.7248 116.494 16.8286 116.262 15.9702C116.03 15.1015 115.627 14.288 115.076 13.5777C114.524 12.8674 113.837 12.2748 113.053 11.8348L107.127 8.47025C105.557 7.58289 103.703 7.34463 101.96 7.8064C100.217 8.26818 98.7242 9.39334 97.8 10.9414L94.5106 16.5437C91.0553 15.292 87.4938 14.3555 83.8696 13.7456V7.30796C83.8573 5.50378 83.1299 3.77816 81.8469 2.50966C80.5639 1.24116 78.8301 0.533377 77.0259 0.541574H70.1821C68.3779 0.533377 66.6442 1.24116 65.3612 2.50965C64.0782 3.77814 63.3507 5.50375 63.3384 7.30791V13.7456C59.7142 14.3554 56.1527 15.2919 52.6974 16.5437L49.4081 10.9414C48.484 9.39313 46.9909 8.26784 45.248 7.80615C43.5051 7.34446 41.6507 7.58301 40.0814 8.47079L34.1555 11.8342C33.3715 12.2744 32.6837 12.8672 32.1325 13.5775C31.5813 14.2878 31.178 15.1014 30.9464 15.9701C30.7139 16.8286 30.6559 17.725 30.7756 18.6063C30.8954 19.4876 31.1906 20.3359 31.6437 21.1013L34.914 26.669C32.1053 28.9736 29.5102 31.5268 27.1603 34.2975L21.4293 31.0444C19.8603 30.1562 18.006 29.9174 16.2632 30.379C14.5203 30.8406 13.0274 31.966 12.1038 33.5144L8.68191 39.3406C8.22877 40.106 7.93359 40.9543 7.81383 41.8356C7.69406 42.7169 7.75213 43.6133 7.98461 44.4718C8.216 45.3403 8.6191 46.1537 9.17009 46.8639C9.72108 47.5741 10.4088 48.1666 11.1926 48.6066L16.8623 51.8246C15.6039 55.193 14.6594 58.6705 14.0408 62.2127H7.44775C5.85846 62.2055 4.31654 62.7535 3.08819 63.762C1.85985 64.7705 1.02219 66.1762 0.719846 67.7365C0.607346 68.3308 0.604004 71.2314 0.604004 71.2603C0.604034 71.8653 0.844389 72.4456 1.2722 72.8734C1.70001 73.3012 2.28024 73.5415 2.88525 73.5416V73.5416Z" fill="#FF0000"/>
<path d="M30.7749 80.71C30.4802 80.6552 30.1776 80.6591 29.8845 80.7213C29.5913 80.7836 29.3133 80.9031 29.0663 81.0729C28.8193 81.2427 28.6083 81.4596 28.4452 81.711C28.2822 81.9625 28.1703 82.2437 28.116 82.5384L28.0124 83.1277C27.9615 83.423 27.9693 83.7254 28.0354 84.0176C28.1014 84.3099 28.2243 84.5863 28.3972 84.831C28.57 85.0757 28.7894 85.284 29.0427 85.444C29.2961 85.6039 29.5785 85.7124 29.8737 85.7632C30.0022 85.7852 30.1322 85.7964 30.2625 85.7966C30.8 85.7959 31.3201 85.6055 31.7309 85.2589C32.1418 84.9122 32.417 84.4316 32.5081 83.9019L32.6028 83.3683C32.7128 82.7734 32.5821 82.1592 32.2393 81.6606C31.8965 81.1621 31.3697 80.8202 30.7749 80.71V80.71ZM68.87 47.6714C69.1674 47.6358 69.4549 47.5418 69.7161 47.395C69.9772 47.2482 70.2069 47.0514 70.392 46.8158C70.5771 46.5803 70.714 46.3105 70.7949 46.0221C70.8757 45.7336 70.899 45.432 70.8633 45.1346C70.8276 44.8371 70.7337 44.5496 70.5868 44.2884C70.44 44.0273 70.2432 43.7976 70.0077 43.6125C69.7721 43.4274 69.5024 43.2905 69.2139 43.2097C68.9254 43.1288 68.6238 43.1056 68.3264 43.1412C67.9254 43.1897 67.5259 43.2432 67.1278 43.3017C66.8305 43.3442 66.5445 43.4451 66.2862 43.5985C66.0279 43.752 65.8025 43.9549 65.6229 44.1956C65.4432 44.4364 65.3129 44.7103 65.2394 45.0015C65.1659 45.2928 65.1506 45.5957 65.1945 45.8929C65.2383 46.19 65.3404 46.4756 65.495 46.7332C65.6495 46.9908 65.8534 47.2154 66.0949 47.394C66.3364 47.5726 66.6109 47.7017 66.9024 47.774C67.194 47.8463 67.497 47.8602 67.794 47.8151C68.1515 47.7628 68.5091 47.7143 68.87 47.6714ZM93.0548 49.8541C93.1789 49.5815 93.2482 49.2871 93.2586 48.9877C93.2689 48.6883 93.2203 48.3898 93.1153 48.1092C93.0103 47.8287 92.8511 47.5715 92.6467 47.3525C92.4423 47.1334 92.1968 46.9568 91.9242 46.8327C91.5577 46.6661 91.1912 46.5035 90.8214 46.3465C90.2649 46.1109 89.6378 46.1058 89.0775 46.3322C88.5172 46.5586 88.0697 46.998 87.8331 47.554C87.5964 48.11 87.5901 48.7372 87.8154 49.2979C88.0407 49.8586 88.4792 50.307 89.0347 50.5447C89.3689 50.6873 89.7016 50.8341 90.0328 50.9853C90.3055 51.1096 90.6 51.179 90.8995 51.1894C91.1989 51.1998 91.4976 51.1511 91.7782 51.0461C92.0589 50.941 92.3161 50.7817 92.5351 50.5771C92.7542 50.3726 92.9307 50.1269 93.0548 49.8541L93.0548 49.8541ZM79.6769 47.8641C79.7945 47.8825 79.9133 47.8918 80.0323 47.892C80.6064 47.8909 81.159 47.6735 81.5799 47.283C82.0008 46.8925 82.259 46.3577 82.303 45.7852C82.347 45.2128 82.1736 44.6448 81.8173 44.1946C81.4611 43.7444 80.9481 43.445 80.3809 43.3562C79.9821 43.2939 79.5823 43.2371 79.1813 43.1858C78.8837 43.1471 78.5814 43.1674 78.2917 43.2457C78.0021 43.324 77.7307 43.4587 77.4931 43.642C77.2556 43.8254 77.0566 44.0538 76.9074 44.3141C76.7583 44.5745 76.662 44.8618 76.624 45.1594C76.5861 45.4571 76.6072 45.7593 76.6863 46.0488C76.7653 46.3382 76.9007 46.6093 77.0846 46.8463C77.2686 47.0834 77.4975 47.2819 77.7582 47.4303C78.019 47.5788 78.3065 47.6744 78.6043 47.7115C78.9629 47.7572 79.3205 47.8081 79.6769 47.8641ZM97.9704 52.8739C97.596 53.3491 97.4258 53.9535 97.497 54.5543C97.5682 55.155 97.8751 55.7029 98.3502 56.0774C98.6342 56.3013 98.9161 56.5291 99.1956 56.7608C99.4257 56.9547 99.6919 57.1012 99.9788 57.1919C100.266 57.2825 100.568 57.3154 100.868 57.2888C101.167 57.2622 101.459 57.1766 101.725 57.0369C101.992 56.8971 102.228 56.7061 102.42 56.4746C102.613 56.2432 102.757 55.976 102.846 55.6885C102.935 55.4009 102.965 55.0987 102.937 54.7991C102.908 54.4996 102.82 54.2087 102.679 53.9432C102.537 53.6776 102.345 53.4428 102.112 53.252C101.803 52.9953 101.491 52.7426 101.175 52.494C100.7 52.1195 100.095 51.9491 99.494 52.0203C98.8931 52.0916 98.345 52.3986 97.9704 52.8739V52.8739ZM56.6617 46.2045C56.2919 46.3587 55.9221 46.518 55.5556 46.6823C55.0033 46.9293 54.5718 47.3856 54.3559 47.9507C54.14 48.5159 54.1574 49.1437 54.4044 49.696C54.6514 50.2483 55.1076 50.6798 55.6728 50.8957C56.238 51.1116 56.8657 51.0941 57.418 50.8472C57.7489 50.6996 58.0812 50.5562 58.4149 50.4172C58.6931 50.3031 58.946 50.1352 59.1591 49.9231C59.3721 49.7111 59.5412 49.459 59.6565 49.1813C59.7718 48.9037 59.8311 48.606 59.831 48.3054C59.8309 48.0047 59.7714 47.7071 59.6559 47.4295C59.5404 47.152 59.3712 46.9 59.1579 46.688C58.9447 46.4761 58.6917 46.3084 58.4135 46.1945C58.1352 46.0807 57.8372 46.023 57.5366 46.0247C57.236 46.0264 56.9386 46.0875 56.6617 46.2045V46.2045ZM106.395 60.6321C106.157 60.8141 105.957 61.0411 105.807 61.3003C105.656 61.5595 105.559 61.8458 105.519 62.1427C105.479 62.4397 105.499 62.7416 105.576 63.0311C105.653 63.3206 105.786 63.5921 105.968 63.8301C106.189 64.1192 106.406 64.411 106.62 64.7056C106.976 65.1948 107.512 65.5226 108.109 65.6167C108.707 65.7108 109.318 65.5636 109.807 65.2074C110.296 64.8513 110.624 64.3154 110.718 63.7177C110.812 63.1199 110.665 62.5093 110.309 62.02C110.073 61.6965 109.836 61.3757 109.593 61.0588C109.411 60.8207 109.184 60.6209 108.924 60.4707C108.665 60.3204 108.379 60.2227 108.082 60.1831C107.785 60.1434 107.483 60.1627 107.194 60.2398C106.904 60.3168 106.633 60.4501 106.395 60.6321ZM116.122 72.5162C115.972 72.1442 115.816 71.775 115.658 71.4079C115.539 71.1329 115.367 70.884 115.152 70.6755C114.937 70.4669 114.683 70.3028 114.404 70.1924C114.126 70.082 113.828 70.0276 113.528 70.0323C113.229 70.0369 112.933 70.1005 112.658 70.2194C112.383 70.3383 112.134 70.5103 111.926 70.7254C111.717 70.9405 111.553 71.1946 111.443 71.4731C111.332 71.7517 111.278 72.0492 111.282 72.3488C111.287 72.6484 111.351 72.9441 111.47 73.2191C111.614 73.5527 111.755 73.8887 111.892 74.2272C112.119 74.7882 112.559 75.2361 113.116 75.4724C113.673 75.7086 114.302 75.7139 114.863 75.487C115.424 75.2601 115.871 74.8197 116.108 74.2625C116.344 73.7054 116.349 73.0773 116.122 72.5162H116.122ZM35.373 73.9337C35.5123 73.5973 35.6556 73.2629 35.803 72.9306C36.0491 72.3779 36.0656 71.75 35.8487 71.1852C35.6319 70.6203 35.1996 70.1647 34.6468 69.9186C34.0941 69.6725 33.4662 69.6561 32.9014 69.8729C32.3365 70.0897 31.8809 70.5221 31.6348 71.0748C31.4711 71.4435 31.3122 71.8143 31.1581 72.187C31.0434 72.4638 30.9843 72.7604 30.9843 73.06C30.9843 73.3596 31.0432 73.6562 31.1578 73.933C31.2724 74.2098 31.4404 74.4613 31.6522 74.6732C31.864 74.8851 32.1155 75.0531 32.3923 75.1678C32.669 75.2825 32.9656 75.3415 33.2652 75.3416C33.5648 75.3416 33.8615 75.2827 34.1382 75.168C34.415 75.0534 34.6665 74.8854 34.8784 74.6736C35.0903 74.4618 35.2583 74.2104 35.373 73.9336L35.373 73.9337ZM37.7757 60.7697C37.5284 61.0872 37.2856 61.4083 37.0472 61.7332C36.8678 61.9743 36.7378 62.2485 36.6647 62.54C36.5916 62.8314 36.5768 63.1345 36.6212 63.4317C36.6656 63.7289 36.7682 64.0144 36.9232 64.2719C37.0783 64.5293 37.2827 64.7536 37.5246 64.9318C37.7666 65.11 38.0414 65.2386 38.3332 65.3103C38.625 65.382 38.9282 65.3953 39.2251 65.3495C39.5221 65.3037 39.8072 65.1997 40.0638 65.0434C40.3205 64.8871 40.5438 64.6817 40.7208 64.4389C40.9369 64.1459 41.156 63.8559 41.378 63.5689C41.5618 63.3324 41.6972 63.062 41.7765 62.7731C41.8558 62.4842 41.8774 62.1826 41.8401 61.8854C41.8028 61.5881 41.7074 61.3012 41.5592 61.0409C41.411 60.7805 41.213 60.5519 40.9764 60.3681C40.7399 60.1843 40.4695 60.0489 40.1806 59.9696C39.8918 59.8903 39.5901 59.8687 39.2929 59.906C38.9957 59.9433 38.7087 60.0388 38.4484 60.187C38.1881 60.3352 37.9595 60.5332 37.7757 60.7697V60.7697ZM46.2613 52.2674C45.9438 52.5135 45.6297 52.7638 45.319 53.0181C45.087 53.2077 44.8947 53.4411 44.753 53.705C44.6113 53.9689 44.5229 54.2581 44.493 54.5562C44.463 54.8542 44.4921 55.1552 44.5785 55.4421C44.6649 55.7289 44.8069 55.9959 44.9965 56.2278C45.1861 56.4597 45.4195 56.652 45.6834 56.7938C45.9473 56.9355 46.2365 57.0238 46.5345 57.0538C46.8326 57.0837 47.1336 57.0547 47.4204 56.9683C47.7072 56.8819 47.9742 56.7399 48.2062 56.5503C48.488 56.3203 48.7724 56.0938 49.0594 55.8708C49.5364 55.4995 49.8465 54.954 49.9216 54.3541C49.9966 53.7543 49.8306 53.1492 49.4598 52.6718C49.0891 52.1943 48.544 51.8835 47.9442 51.8077C47.3445 51.7319 46.7392 51.8972 46.2613 52.2674L46.2613 52.2674ZM114.695 84.2528C114.781 84.7879 115.054 85.2751 115.466 85.627C115.879 85.979 116.402 86.1728 116.944 86.1737C117.066 86.1737 117.188 86.1638 117.309 86.1441C117.604 86.0968 117.888 85.9916 118.143 85.8347C118.398 85.6777 118.62 85.472 118.796 85.2294C118.971 84.9867 119.097 84.7118 119.167 84.4204C119.236 84.129 119.247 83.8267 119.2 83.531L119.101 82.9412C118.998 82.345 118.662 81.8142 118.168 81.4654C117.674 81.1167 117.061 80.9786 116.465 81.0815C115.869 81.1845 115.338 81.52 114.989 82.0144C114.64 82.5087 114.502 83.1214 114.605 83.7175L114.695 84.2528ZM90.9083 59.2297C90.4178 58.8757 89.8068 58.731 89.2096 58.8274C88.6124 58.9238 88.0779 59.2534 87.7237 59.7438L77.3705 74.0791C75.5538 73.4413 73.5682 73.4791 71.7771 74.1855C69.986 74.8918 68.5091 76.2195 67.6168 77.9256C66.7244 79.6316 66.4762 81.602 66.9176 83.4761C67.3589 85.3501 68.4604 87.0026 70.0204 88.1311C71.5804 89.2596 73.4945 89.7886 75.4126 89.6214C77.3307 89.4541 79.1244 88.6018 80.4655 87.2204C81.8067 85.8389 82.6055 84.0207 82.7159 82.0985C82.8262 80.1764 82.2408 78.2787 81.0666 76.7528L91.4218 62.4149C91.5973 62.1721 91.7233 61.8971 91.7925 61.6055C91.8616 61.314 91.8727 61.0117 91.825 60.7159C91.7773 60.4201 91.6718 60.1366 91.5145 59.8816C91.3572 59.6266 91.1512 59.4051 90.9083 59.2297V59.2297ZM74.7446 85.0325C74.0678 85.0325 73.4063 84.8318 72.8435 84.4558C72.2808 84.0798 71.8422 83.5454 71.5832 82.9201C71.3242 82.2948 71.2565 81.6068 71.3885 80.943C71.5205 80.2792 71.8464 79.6695 72.325 79.191C72.8036 78.7124 73.4133 78.3865 74.0771 78.2545C74.7408 78.1225 75.4289 78.1902 76.0541 78.4492C76.6794 78.7082 77.2138 79.1468 77.5898 79.7095C77.9658 80.2722 78.1665 80.9338 78.1665 81.6106C78.1655 82.5178 77.8047 83.3876 77.1632 84.0291C76.5217 84.6707 75.6519 85.0315 74.7446 85.0325V85.0325ZM144.323 95.2981H2.88525C2.28023 95.2981 1.69998 95.5384 1.27217 95.9663C0.844349 96.3941 0.604004 96.9743 0.604004 97.5794C0.604004 98.1844 0.844349 98.7646 1.27217 99.1924C1.69998 99.6203 2.28023 99.8606 2.88525 99.8606H144.323C144.928 99.8606 145.508 99.6203 145.936 99.1924C146.364 98.7646 146.604 98.1844 146.604 97.5794C146.604 96.9743 146.364 96.3941 145.936 95.9663C145.508 95.5384 144.928 95.2981 144.323 95.2981ZM100.979 104.423H43.9478C43.3427 104.423 42.7625 104.663 42.3347 105.091C41.9068 105.519 41.6665 106.099 41.6665 106.704C41.6665 107.309 41.9068 107.89 42.3347 108.317C42.7625 108.745 43.3427 108.986 43.9478 108.986H100.979C101.584 108.986 102.164 108.745 102.592 108.317C103.02 107.89 103.26 107.309 103.26 106.704C103.26 106.099 103.02 105.519 102.592 105.091C102.164 104.663 101.584 104.423 100.979 104.423ZM34.8228 104.423H32.5415C31.9365 104.423 31.3562 104.663 30.9284 105.091C30.5006 105.519 30.2603 106.099 30.2603 106.704C30.2603 107.309 30.5006 107.89 30.9284 108.317C31.3562 108.745 31.9365 108.986 32.5415 108.986H34.8228C35.4278 108.986 36.008 108.745 36.4358 108.317C36.8637 107.89 37.104 107.309 37.104 106.704C37.104 106.099 36.8637 105.519 36.4358 105.091C36.008 104.663 35.4278 104.423 34.8228 104.423ZM112.385 104.423H110.104C109.499 104.423 108.919 104.663 108.491 105.091C108.063 105.519 107.823 106.099 107.823 106.704C107.823 107.309 108.063 107.89 108.491 108.317C108.919 108.745 109.499 108.986 110.104 108.986H112.385C112.99 108.986 113.571 108.745 113.998 108.317C114.426 107.89 114.667 107.309 114.667 106.704C114.667 106.099 114.426 105.519 113.998 105.091C113.571 104.663 112.99 104.423 112.385 104.423Z" fill="#FF0000"/>
</svg>
