<svg width="124" height="117" viewBox="0 0 124 117" fill="none" xmlns="http://www.w3.org/2000/svg">
<path d="M122.844 76.5108C121.726 74.68 119.96 73.4027 117.875 72.9083C115.785 72.4195 113.635 72.776 111.815 73.913L111.054 74.3896C110.893 73.0357 110.391 71.7387 109.568 70.605C108.229 68.7553 106.16 67.5561 103.892 67.3078C101.591 67.0593 99.3389 67.7938 97.6323 69.3089L95.0397 71.615C94.7428 70.8992 94.3215 70.2325 93.7813 69.641C91.3346 66.9784 87.2568 66.7163 84.5024 69.0335L69.812 81.361C69.6282 81.5146 69.4768 81.6923 69.3564 81.8847C69.081 81.7762 68.8123 81.65 68.5535 81.5041L61.8348 77.7289C53.3176 71.7987 44.3656 76.06 44.1035 76.1898L32.5753 81.0516V78.4823C32.5753 77.2617 31.5842 76.2706 30.3636 76.2706H2.21171C0.99113 76.2706 0 77.2617 0 78.4823V114.728C0 115.948 0.99113 116.94 2.21171 116.94H30.3639C31.5844 116.94 32.5756 115.948 32.5756 114.728V110.238L40.1451 105.484C41.3549 104.723 42.886 104.693 44.1309 105.398L52.9938 110.442C56.5097 112.443 60.4958 113.483 64.514 113.483C65.7725 113.483 67.0415 113.38 68.2947 113.172L81.4568 110.996C87.1223 110.059 92.561 107.769 97.1897 104.374L120.754 87.0941C124.07 84.6663 124.988 80.0159 122.844 76.5108ZM28.1524 112.516H4.42341V80.694H28.1524V112.516ZM94.0409 78.428L100.571 72.6138C101.365 71.9144 102.391 71.5851 103.417 71.7066C104.454 71.8201 105.366 72.3493 105.988 73.2001C106.571 74.0102 106.804 74.9985 106.631 75.9841C106.505 76.6971 106.18 77.34 105.699 77.856C105.696 77.8593 105.693 77.8626 105.69 77.8659C105.508 78.0594 105.305 78.2365 105.08 78.3901L91.1569 87.8796C90.6706 86.1473 89.5986 84.6807 88.1744 83.692L93.2521 79.2434C93.5385 78.9927 93.8031 78.7198 94.0409 78.428ZM87.3437 72.4251C88.2997 71.6285 89.693 71.7365 90.5195 72.6277C90.9407 73.0921 91.1513 73.6888 91.119 74.3155C91.0974 74.7179 90.9731 75.096 90.7625 75.4253L82.9973 82.3386H75.5302L87.3437 72.4251ZM118.14 83.524L94.5756 100.804C90.5034 103.791 85.718 105.805 80.733 106.632L67.571 108.808C63.3205 109.505 58.9187 108.725 55.1867 106.597L46.3183 101.552C43.6529 100.04 40.3853 100.104 37.7903 101.736L32.9403 104.782V85.6978L45.9297 80.2185C46.2078 80.0807 52.9561 76.9293 59.4861 81.4715L66.383 85.3602C68.0141 86.2782 69.8665 86.7617 71.7301 86.7617H83.839C85.4647 86.7617 86.8256 87.9851 87.0039 89.6026C87.0637 90.1597 86.9765 90.6964 86.7755 91.1777C86.7371 91.2507 86.7022 91.3255 86.6723 91.4019C86.2416 92.2422 85.4434 92.8754 84.4437 93.07L80.4955 93.8937C80.3552 93.9557 66.8959 99.7618 55.6514 93.9532C54.5711 93.3996 53.2371 93.8129 52.67 94.9036C52.1084 95.9891 52.5349 97.3232 53.6204 97.885C66.7229 104.66 81.651 98.2199 81.8077 98.0904L85.2859 97.4126C87.5666 96.9706 89.4096 95.5767 90.4672 93.7074L107.576 82.0472C108.031 81.7369 108.447 81.3868 108.823 81.0023L114.159 77.6617C114.964 77.1565 115.915 76.9974 116.86 77.2161C117.783 77.4347 118.566 78.0018 119.069 78.8175C120.019 80.3779 119.614 82.4438 118.14 83.524Z" fill="#FF0000"/>
<path d="M19.2115 96.8232C23.2082 96.8232 26.4594 93.5719 26.4594 89.5725C26.4594 85.5759 23.2082 82.3246 19.2115 82.3246C15.2149 82.3246 11.9636 85.5759 11.9636 89.5725C11.9636 93.5719 15.2149 96.8232 19.2115 96.8232ZM19.2115 86.7477C20.7698 86.7477 22.0363 88.0143 22.0363 89.5725C22.0363 91.1308 20.7698 92.3998 19.2115 92.3998C17.6533 92.3998 16.3868 91.1305 16.3868 89.5725C16.387 88.0143 17.6536 86.7477 19.2115 86.7477ZM47.0426 67.7826C50.7423 69.5891 55.252 70.5047 60.41 70.5047C60.7825 70.5047 61.1498 70.5074 61.5118 70.5047C75.0572 70.5047 81.7219 64.4475 84.9303 59.3221C87.4362 55.3227 88.0952 50.273 86.7396 45.4687C83.9356 35.5286 75.3481 26.3292 71.1859 22.3135C72.3307 21.1881 73.0428 19.6243 73.0428 17.897C73.0428 15.7816 71.9753 13.9114 70.352 12.7919L74.2202 3.03113C74.5496 2.20219 74.3445 1.25701 73.7071 0.633156C73.0644 0.00930566 72.1192 -0.176964 71.2983 0.179522C61.7604 4.21684 52.8651 0.247055 52.7785 0.206646C51.9576 -0.163402 51.0016 -0.0120064 50.3481 0.595514C49.6919 1.20303 49.4649 2.14822 49.7758 2.98546L53.3885 12.7141C51.7007 13.8234 50.5831 15.7321 50.5831 17.8973C50.5831 19.6755 51.3376 21.2803 52.5416 22.412C48.7644 26.071 41.5243 33.8362 38.0881 42.5363C34.2127 52.3494 38.1473 63.4375 47.0426 67.7826ZM56.7859 19.6739C55.8028 19.6739 55.009 18.8773 55.009 17.897C55.009 16.933 55.8191 16.1201 56.7859 16.1201H66.837C67.8038 16.1201 68.6139 16.933 68.6139 17.897C68.6139 18.8773 67.8198 19.6739 66.837 19.6739H56.7859ZM68.3817 5.74768L66.0269 11.6967H57.7311L55.5006 5.68817C58.6979 6.41747 63.2885 6.90349 68.3817 5.74768ZM42.2035 44.1615C45.8926 34.8168 54.8277 26.2711 57.2163 24.097H66.6131C69.2178 26.4673 79.5861 36.3977 82.4839 46.6674C83.4994 50.2724 83.0239 54.0316 81.1822 56.9751C78.5304 61.2122 73.1023 66.3375 60.9287 66.0782C56.4568 66.143 52.1845 65.3708 48.9845 63.807C42.152 60.4696 39.1709 51.839 42.2035 44.1615Z" fill="#FF0000"/>
<path d="M60.0881 50.8684C59.8005 50.4882 59.6057 50.0381 59.4991 49.5139L56.9431 49.7923C57.138 51.0771 57.588 52.0746 58.2929 52.7796C58.9979 53.4845 59.9165 53.9069 61.0482 54.0458V55.8271H62.4675V53.9949C63.7432 53.8139 64.7357 53.3176 65.4548 52.5058C66.1691 51.6941 66.5264 50.6968 66.5264 49.5139C66.5264 48.4564 66.2436 47.5889 65.6729 46.9164C65.1069 46.2391 64.0355 45.6872 62.4675 45.2651V41.429C63.103 41.7075 63.4927 42.227 63.6458 42.997L66.1229 42.677C65.956 41.6936 65.5616 40.9142 64.9494 40.33C64.3324 39.7454 63.5068 39.3884 62.4678 39.263V38.2935H61.0485V39.263C59.9259 39.3743 59.0261 39.7963 58.3489 40.5248C57.6716 41.253 57.3331 42.1531 57.3331 43.2245C57.3331 44.282 57.6345 45.1821 58.2285 45.9241C58.8268 46.6664 59.7684 47.2183 61.0488 47.5848V51.6946C60.6959 51.5225 60.3757 51.2487 60.0881 50.8684ZM62.4678 48.0063C63.0568 48.1779 63.4791 48.4193 63.7388 48.7392C63.994 49.0547 64.1238 49.4303 64.1238 49.8709C64.1238 50.3581 63.9707 50.7849 63.6646 51.1466C63.3585 51.5083 62.9596 51.7356 62.4678 51.8286V48.0063ZM60.0975 44.0728C59.8888 43.7758 59.782 43.4512 59.782 43.108C59.782 42.7277 59.898 42.3798 60.1252 42.0689C60.3571 41.7534 60.6632 41.5309 61.0482 41.4011V44.7919C60.6217 44.6108 60.3062 44.3695 60.0975 44.0728Z" fill="#FF0000"/>
</svg>
