<svg width="73" height="73" viewBox="0 0 73 73" fill="none" xmlns="http://www.w3.org/2000/svg">
<path fill-rule="evenodd" clip-rule="evenodd" d="M35.2544 67.1334H35.6294C37.0717 67.1334 38.5432 70.1338 36.3796 70.1338H36.0045C34.5622 70.1338 33.0908 67.1334 35.2544 67.1334ZM39.0048 64.5081C39.0048 63.0742 38.8897 64.3716 39.38 63.383C40.8798 63.5078 40.9253 63.9979 41.5935 64.9198C43.2575 67.216 43.1304 66.5963 43.1304 69.0087C40.365 68.947 39.0048 65.5734 39.0048 64.5081ZM43.5054 62.2578C43.5054 61.2632 44.4302 60.1878 46.0448 62.3302C52.0052 70.2391 43.5054 65.7066 43.5054 62.2578ZM48.3811 60.3826V58.8824C51.1464 58.944 52.5066 62.3177 52.5066 63.383C52.5066 64.8169 52.6217 63.5195 52.1315 64.5081C50.7132 64.1777 50.7622 63.9568 49.9728 62.9163C49.5269 62.3286 48.3811 61.0084 48.3811 60.3826ZM21.0026 58.5073C19.221 57.6524 17.8694 58.0509 15.9 56.8591C14.3114 55.8978 13.2143 55.222 11.6264 54.3818C12.1894 53.2085 14.9709 44.5196 15.0019 43.1304C17.0229 43.6012 19.0263 45.3333 20.7127 45.6705C27.0352 46.9351 27.5518 43.6086 34.8624 48.023C35.7435 48.5552 36.3671 49.0371 37.3867 49.6243C39.4502 50.8125 39.755 50.6499 39.755 52.5066C39.755 56.4896 33.1531 50.2563 31.1289 50.2563C28.4725 50.2563 27.0346 52.2868 25.5969 53.7255C24.101 55.2225 22.1064 56.859 21.0026 58.5073ZM36.0045 45.3807L49.1211 43.8705C51.333 43.8562 52.3604 43.5421 54.0068 43.5054C54.4176 44.3617 57.3821 53.5801 57.3821 54.3818C57.3821 54.5971 53.3311 57.8313 52.8817 58.1323C51.3475 57.1051 51.594 56.257 49.1311 56.257C46.8196 56.257 46.8971 57.6889 45.8622 58.2386C43.9842 59.2362 43.8927 57.7181 41.9132 59.9412C39.5674 62.5756 42.0401 60.0363 38.6681 61.1411C37.108 61.6521 36.4258 62.4318 36.3796 64.5081C33.9038 64.5081 31.504 64.5441 31.504 69.0087C26.1892 68.8902 33.3538 64.161 34.8794 61.8827L33.3097 60.0727C30.1144 62.1677 27.9482 66.5549 25.5032 66.7584C23.8684 64.7603 25.8429 63.9806 27.8472 61.9765C29.1521 60.6719 30.5162 59.6072 31.504 58.1323L29.694 56.5627C25.309 59.5723 24.393 63.6466 21.3777 63.0078C21.3777 60.4233 22.2823 60.4155 25.4095 57.2885C26.4678 56.23 29.2129 52.8817 30.7539 52.8817C32.8596 52.8817 34.8219 56.257 38.6299 56.257C41.5986 56.257 44.7938 51.5312 39.9151 48.2209C38.533 47.283 36.7914 46.5558 36.0045 45.3807ZM8.62614 56.257H2.62531V35.6294C5.45794 36.2894 11.2921 38.8652 13.5017 39.38C13.4716 40.7285 11.64 46.261 11.1147 47.8693C10.6415 49.3177 10.1831 50.5612 9.83058 51.8359C9.40773 53.3645 8.74712 54.8025 8.62614 56.257ZM55.507 39.38C58.3509 39.3166 67.2815 35.693 70.1338 35.6294V56.257H60.7576C60.4148 54.7853 59.9476 53.7959 59.4973 52.2667L56.8704 43.6422C56.4746 42.4308 55.9287 40.3236 55.507 39.38ZM47.256 25.8783C47.8389 25.0826 52.8725 21.6805 54.0068 21.3777V23.628H70.1338V28.1286H54.0068V30.3788C52.6834 30.0254 51.6468 29.0561 50.4809 28.2789C49.3792 27.5444 47.9206 26.7856 47.256 25.8783ZM18.7523 30.3788V28.1286H2.62531V23.628H18.7523V21.3777C19.8866 21.6805 24.9203 25.0826 25.5032 25.8783C24.9203 26.6739 19.8866 30.0759 18.7523 30.3788ZM16.5021 21.0026H9.37615V14.2518H21.3777V2.62531H63.383V21.0026H56.257V16.5021C54.2726 17.8309 43.6523 25.1636 42.3803 25.5032C43.1266 26.6177 55.1276 34.5778 56.257 34.8794V30.7539H63.383V34.8794C62.0623 34.9892 53.5138 37.3965 52.5066 37.8797C52.6398 39.4799 53.1235 39.6549 53.2567 41.2551C49.5329 41.2551 41.7148 41.4984 38.017 42.1424C35.8952 42.512 35.5931 43.1351 34.0113 43.7921C32.3298 44.4905 33.6103 43.823 30.2416 43.2699C26.7086 42.6899 22.402 43.7557 19.9803 42.6526C18.5772 42.0133 17.6803 41.2421 16.127 40.8801C16.2398 39.5251 16.5945 39.0929 16.8771 37.8797L9.37615 35.2544V30.7539H16.5021V34.8794C17.6315 34.5778 29.6325 26.6177 30.3788 25.5032C29.006 25.1367 24.974 22.1506 23.4776 21.153C21.0257 19.5184 18.8459 18.0716 16.5021 16.5021V21.0026ZM18.7523 3.37543V11.6264H11.2514L18.7523 3.37543ZM7.12587 12.7516V21.0026H0V30.7539H7.12587V34.1293C4.20648 33.8863 4.51047 32.6291 0 32.6291V58.8824C9.12672 58.8824 10.2135 59.8526 10.8764 57.0071C13.0631 57.5911 14.7634 60.0506 18.7523 60.3826C18.7523 66.0075 20.086 64.2717 21.8734 65.8876C22.2778 66.2532 23.7403 70.5744 27.0034 69.0087C28.4879 71.8143 30.3724 72.2764 33.0041 70.8838C35.827 75.0994 39.1644 71.3166 39.755 70.8838C41.5278 71.2969 43.5201 73.2336 45.7557 69.0087C48.6831 70.4132 49.2362 67.4951 50.7137 66.9503C52.2098 66.3987 55.132 67.5482 55.132 62.6328C55.132 61.2704 54.687 61.3174 54.3818 60.0075C55.8871 58.9996 57.0021 58.0151 58.5073 57.0071C58.5916 58.0198 58.6832 58.0274 58.8824 58.8824H72.7591V32.6291C70.6885 32.6291 67.4142 33.2747 65.6333 34.1293V30.7539H72.7591V21.0026H65.6333V0H18.7523C17.7689 0 13.6477 5.00339 12.8074 6.05654C11.8569 7.24784 10.9006 7.87654 9.90948 9.15947C9.2391 10.0272 7.12587 11.9122 7.12587 12.7516Z" fill="white"/>
<path fill-rule="evenodd" clip-rule="evenodd" d="M23.2529 10.8764C23.2529 11.7405 23.5139 12.0016 24.378 12.0016H61.1327V9.37616H23.2529V10.8764Z" fill="white"/>
<path fill-rule="evenodd" clip-rule="evenodd" d="M23.2529 5.62571V7.12586H61.1327V4.50055H24.378C23.5139 4.50055 23.2529 4.76148 23.2529 5.62571Z" fill="white"/>
<path fill-rule="evenodd" clip-rule="evenodd" d="M35.2544 18.0023C35.2544 19.5207 31.504 19.7961 31.504 23.2529C31.504 29.806 38.6298 26.642 38.6298 30.7539C38.6298 32.8015 34.424 33.9204 34.1293 30.3788H31.504C31.9949 36.2788 35.2544 32.4539 35.2544 37.5047H37.5047C37.5047 33.733 37.9972 35.6524 39.8632 33.8625C42.2478 31.5752 41.1629 27.4624 38.6334 26.2497C36.6865 25.3163 34.1293 26.2942 34.1293 23.2529C34.1293 21.2053 38.3351 20.0864 38.6298 23.628H41.2551C40.7642 17.7281 37.5047 21.5528 37.5047 16.5021H35.2544V18.0023Z" fill="white"/>
</svg>
