<svg width="85" height="104" viewBox="0 0 85 104" fill="none" xmlns="http://www.w3.org/2000/svg">
<path d="M42.6046 102.325C42.3924 102.325 42.1794 102.281 41.9813 102.192C40.3364 101.455 1.68945 83.8986 1.68945 61.4101V13.6942C1.68945 13.2385 1.89348 12.8066 2.24495 12.517C2.59641 12.2266 3.06329 12.1126 3.50709 12.1975C17.2388 14.8871 29.7143 11.5527 41.6522 2.00877C42.2092 1.56274 43 1.56423 43.557 2.00877C55.4941 11.5534 67.9711 14.8856 81.7013 12.1975C82.1473 12.1134 82.612 12.2266 82.9635 12.517C83.3149 12.8066 83.519 13.2385 83.519 13.6942V61.4101C83.519 83.8986 44.8727 101.455 43.2278 102.192C43.0298 102.281 42.8168 102.325 42.6046 102.325ZM4.73945 15.5149V61.4101C4.73945 80.4882 37.6334 96.7688 42.6046 99.1188C47.575 96.7673 80.469 80.4748 80.469 61.4101V15.5149C66.8847 17.6966 54.4695 14.2944 42.6046 5.13919C30.7389 14.2944 18.3215 17.6974 4.73945 15.5149Z" fill="#FF0000" stroke="#FF0000" stroke-width="2"/>
<path d="M42.6046 74.1796C30.374 74.1796 20.4243 64.2299 20.4243 52.0001C20.4243 39.7696 30.374 29.8198 42.6046 29.8198C54.8344 29.8198 64.7841 39.7696 64.7841 52.0001C64.7841 64.2299 54.8344 74.1796 42.6046 74.1796ZM42.6046 32.8698C32.0562 32.8698 23.4743 41.4517 23.4743 52.0001C23.4743 62.5485 32.0562 71.1296 42.6046 71.1296C53.153 71.1296 61.7341 62.5485 61.7341 52.0001C61.7341 41.4517 53.153 32.8698 42.6046 32.8698Z" fill="#FF0000" stroke="#FF0000" stroke-width="2"/>
<path d="M36.6059 61.2082C36.2015 61.2082 35.8136 61.0473 35.5276 60.7614L32.1582 57.3912C31.5625 56.7955 31.5625 55.8297 32.1582 55.2347C32.7539 54.639 33.7189 54.639 34.3146 55.2347L36.6059 57.5267L50.8938 43.2388C51.4895 42.6431 52.4546 42.6431 53.0503 43.2388C53.646 43.8345 53.646 44.7995 53.0503 45.3952L37.6841 60.7614C37.3982 61.0473 37.0102 61.2082 36.6059 61.2082Z" fill="#FF0000" stroke="#FF0000" stroke-width="2"/>
</svg>
