<svg width="75" height="75" viewBox="0 0 75 75" fill="none" xmlns="http://www.w3.org/2000/svg">
<path fill-rule="evenodd" clip-rule="evenodd" d="M32.1842 56.9407C32.6952 56.7083 33.4287 56.1836 33.9501 56.3572C36.5426 57.2197 40.5153 58.7775 43.1673 59.7705C45.6516 60.7007 48.4962 61.5079 50.0675 63.0898C52.4263 65.4644 51.4773 67.3105 51.028 71.199L41.6459 71.1692C41.7834 70.0289 41.9236 68.8689 42.0692 67.7191C42.1515 67.0688 42.2796 66.6175 41.9408 66.0654C41.7432 65.7436 41.3383 65.4096 40.7363 65.4124C39.4196 65.4186 39.3351 66.5459 39.1859 67.7646C39.0446 68.9186 38.8827 70.0405 38.7729 71.1988L28.6358 71.1957L28.6387 58.5481L32.1842 56.9407ZM50.316 48.1185C48.535 48.5287 49.0968 51.3548 51.0075 50.884C52.6467 50.4801 52.1967 47.6853 50.316 48.1185ZM44.6243 48.1168C42.9678 48.4952 43.319 51.2376 45.2471 50.9012C45.9597 50.7769 46.5241 50.0029 46.3343 49.1503C46.1818 48.4648 45.4504 47.9281 44.6243 48.1168ZM38.9361 48.1164C37.2649 48.4926 37.6316 51.2389 39.5586 50.9007C40.2711 50.7757 40.8313 50.0049 40.6404 49.153C40.4834 48.4523 39.7794 47.9266 38.9361 48.1164ZM20.8337 32.2293C19.0506 32.9207 19.9896 35.8501 21.8799 35.0827C23.5006 34.4246 22.7186 31.4984 20.8337 32.2293ZM32.6257 32.2133C30.8832 32.8769 31.6781 35.7045 33.5657 35.1243C35.3102 34.588 34.5262 31.4895 32.6257 32.2133ZM26.9388 33.6273C25.4911 33.9413 25.7841 35.4906 25.7841 36.9621C25.7841 37.6329 25.6755 38.4658 25.9773 39.0087C26.2089 39.4252 26.7802 39.8474 27.5423 39.6779C28.9329 39.3686 28.6358 37.7495 28.6359 36.34C28.6359 35.7159 28.727 34.7882 28.4527 34.3131C28.194 33.8652 27.6286 33.4778 26.9388 33.6273ZM46.0429 42.4272C44.6469 42.7465 44.6231 44.8669 46.0137 45.1935C46.3529 45.2732 50.5306 45.2812 50.9363 45.2086C52.4189 44.9434 52.3521 42.6761 50.9295 42.4161C50.5133 42.34 46.3858 42.3487 46.0429 42.4272ZM24.7363 42.0868C24.0685 42.2732 23.5338 42.8044 23.6786 43.7024C23.9741 45.5354 27.9685 45.6078 29.7607 44.8321C31.5201 44.0707 30.7642 41.8775 29.191 42.0414C28.3919 42.1246 28.1248 42.5196 26.9561 42.4566C26.1132 42.4112 25.4202 41.896 24.7363 42.0868ZM58.5987 39.0959C58.0124 38.647 57.3645 37.0902 56.55 36.789C55.2712 36.3163 54.1217 37.6655 54.8259 38.866L56.6697 41.3794C57.64 42.6996 58.1285 42.8753 59.4898 41.9437C60.3571 41.3502 61.2213 40.7873 62.0913 40.1901C63.1049 39.4944 64.3394 39.0587 63.9832 37.7103C63.8438 37.1826 63.4274 36.7921 62.8475 36.711C61.7534 36.558 60.1434 38.2307 58.5987 39.0959ZM58.5987 21.306C57.9062 20.8126 57.411 19.3174 56.5633 18.9993C55.2438 18.5043 54.0943 19.9453 54.8216 21.0971L55.7297 22.3223C58.1593 25.633 57.6371 25.4218 62.0962 22.4158C63.1588 21.6995 64.3126 21.2229 63.9872 19.9307C63.85 19.3857 63.4161 19.0071 62.8528 18.9254C62.1178 18.8189 61.7103 19.2176 61.2542 19.5298C60.385 20.1248 59.4736 20.7751 58.5987 21.306ZM50.8323 11.494C49.4982 11.8688 49.4827 13.7394 50.7035 14.1927C51.0824 14.3335 63.8288 14.3854 64.4089 14.2337C65.8475 13.8575 65.7084 11.9519 64.5692 11.5323C64.0245 11.3317 51.2866 11.3664 50.8323 11.494ZM30.9159 11.4881C29.4896 11.8798 29.5821 14.0305 31.07 14.2643C31.7697 14.3743 45.5853 14.3244 45.9185 14.2344C47.3286 13.8536 47.2988 11.6846 45.794 11.4571C45.0675 11.3473 31.2339 11.4008 30.9159 11.4881ZM65.4264 45.2917C63.7163 45.2735 61.9984 45.2912 60.2874 45.2896C59.3384 45.2888 58.7016 45.2509 58.2295 45.8377C57.7483 46.4358 57.9385 47.395 58.3603 47.7762C59.0362 48.387 61.9555 48.1421 63.1315 48.1421C68.8952 48.1421 68.3135 48.8175 68.3135 42.917C68.3135 41.6906 68.6106 38.8365 67.8988 38.1503C67.4683 37.7352 66.5746 37.6307 66.0131 38.0637C65.3817 38.5507 65.4601 39.1168 65.461 40.0729C65.4623 41.424 65.6115 44.0946 65.4264 45.2917ZM65.4066 27.4987C63.7006 27.4896 61.9935 27.499 60.2874 27.4969C59.3289 27.4957 58.6943 27.4389 58.2204 28.0519C57.7372 28.6771 57.9152 29.585 58.3743 29.9877C59.1349 30.6552 61.8873 30.3581 63.1315 30.3581C63.9907 30.3581 64.8498 30.358 65.709 30.3581C68.7095 30.3585 68.3135 30.0367 68.3135 25.1413C68.3135 24.2822 68.3133 23.423 68.3135 22.5638C68.3137 21.6364 68.4577 20.9676 67.8773 20.3952C67.3621 19.887 66.6101 19.8112 65.9995 20.2754C65.3914 20.7377 65.4601 21.3661 65.461 22.2972C65.4621 23.2481 65.5799 26.8479 65.4066 27.4987ZM65.4607 62.7788C63.708 62.7898 61.9514 62.7827 60.1984 62.7805C59.2836 62.7793 58.6496 62.7514 58.2147 63.3305C57.7256 63.9818 57.9092 64.8347 58.3799 65.2659C59.0547 65.8842 61.9633 65.6352 63.1315 65.6352C64.3433 65.6352 67.1311 65.943 67.855 65.2391C68.6304 64.485 68.3135 61.7363 68.3135 60.426C68.3135 59.5669 68.3133 58.7077 68.3135 57.8486C68.3136 56.9412 68.4553 56.2374 67.8832 55.6747C67.3782 55.1781 66.6098 55.0782 65.9902 55.5519C65.4201 55.9878 65.4604 56.6807 65.461 57.5819C65.4622 59.3142 65.4572 61.0467 65.4607 62.7788ZM36.5986 5.79714C35.7986 6.01746 35.2131 7.03486 35.8066 7.93492C36.3753 8.79743 37.2826 8.59119 38.5122 8.59122C40.7119 8.59122 58.1435 8.69622 58.7137 8.54796C59.4827 8.34797 60.1701 7.28552 59.5573 6.4066C58.9625 5.55356 57.9845 5.73874 56.8211 5.73876C54.5894 5.73884 37.2103 5.62867 36.5986 5.79714ZM23.5562 50.9844C27.2199 51.7094 27.3265 51.5935 30.8489 50.9982L31.8216 53.9369C31.4589 54.1533 27.4145 56.0368 27.2202 56.0383C26.9834 56.0402 23.1448 54.209 22.5932 53.9592L23.5562 50.9844ZM16.2993 33.0515C17.0784 32.611 17.2689 32.6758 17.8949 32.0776L19.1617 30.7645C20.0296 29.9867 21.9987 29.9367 23.3812 29.8052C24.9312 29.6579 26.428 29.5624 27.9052 29.1955C29.8704 28.7074 30.063 28.3248 31.4019 27.5811C31.7608 27.8286 32.484 28.7356 32.8579 29.1068C36.0113 32.2361 37.5361 32.1601 38.2574 32.6071C37.8531 35.2197 36.1354 40.4912 35.0495 42.9207C33.4383 46.5255 31.2312 48.6162 27.2246 48.6162C22.7477 48.6162 21.0215 46.1703 19.479 43.1058C18.5371 41.2345 16.4928 35.105 16.2993 33.0515ZM29.4525 25.408C27.5019 27.0103 22.8255 26.834 19.9589 27.3853C18.1638 27.7306 17.1892 28.5345 16.3741 29.5799C16.0969 29.9354 15.0152 30.894 14.5962 29.9481C14.3032 29.2866 14.4017 28.1301 14.5233 27.3717C16.6041 14.401 40.8825 15.1016 40.0178 29.2387C39.954 30.2826 38.49 29.6795 37.965 29.4227C36.4554 28.6844 34.4407 26.7236 33.3915 25.4609L32.0294 23.8904C31.6463 23.504 31.0879 22.6929 30.5469 22.5258C29.6888 22.2608 28.935 22.8241 28.7437 23.4635C28.4325 24.504 29.2008 24.8443 29.4525 25.408ZM24.202 2.90307L71.1493 2.90367L71.1465 71.198L53.9194 71.2011C54.0454 69.9373 54.2864 68.7083 54.3795 67.4291C54.554 65.0319 54.3432 65.4617 53.9912 63.8034C54.5112 63.5024 54.7645 63.4973 55.0139 62.9726C55.2515 62.4726 55.1377 61.8623 54.8623 61.4937C54.0598 60.4196 52.5355 61.3088 51.7999 60.8229C51.6622 60.732 51.4396 60.4883 51.2826 60.3666C51.0721 60.2033 51.0006 60.1589 50.7612 59.9975C50.3687 59.733 50.0421 59.544 49.5993 59.2939C49.168 59.0502 48.8014 58.8851 48.341 58.6841C47.997 58.5338 47.3012 58.2864 47.0494 58.1273C48.1498 58.0322 53.0841 58.1051 54.5992 58.1052C55.8786 58.1052 57.076 58.2207 57.3979 57.0941C57.5652 56.5087 57.3787 55.9866 57.0528 55.6606C56.6588 55.2665 56.2482 55.2441 55.5324 55.2441H39.6676C38.7013 55.2441 36.2869 54.1682 35.2636 53.8089C34.6594 53.5968 34.7342 53.6429 34.5375 53.0244L33.4581 49.7606C33.6009 49.5299 33.7823 49.4373 34.0123 49.2594C34.9933 48.5003 36.5937 46.3834 37.0898 45.241C38.1072 45.233 40.9051 45.4608 41.5264 44.9521C42.6267 44.0512 42.1326 42.3842 40.4675 42.3834L38.4056 42.3842L39.367 39.5476L49.7108 39.5508C50.4394 39.5518 51.7426 39.7093 52.0218 38.4593C52.2895 37.2605 51.3868 36.695 50.3356 36.6928C47.2065 36.6863 43.1102 36.8074 40.2083 36.6837L41.1479 32.9334C41.7987 32.8439 49.9145 32.9091 51.3106 32.9091C52.4862 32.9092 53.4925 33.0546 54.0077 32.1949C54.6109 31.1884 53.8483 30.1919 52.9708 30.0663L42.8478 30.0499L42.87 27.2081C45.0456 27.2526 47.2639 27.2126 49.4442 27.2126C50.5075 27.2126 51.6894 27.2617 52.7377 27.2126C53.6546 27.1697 54.3935 26.4454 54.1531 25.4215C53.9191 24.4245 53.0845 24.3583 51.9329 24.3594L42.2315 24.3577C41.9751 23.2015 41.0322 21.9568 40.9004 21.519L51.044 21.5247C53.4131 21.5247 53.287 18.6743 51.2218 18.6721L38.4233 18.6707C38.0277 18.6707 37.5511 18.2136 37.2145 17.9952C36.1136 17.281 34.8401 16.6564 33.558 16.2306C29.7723 14.9734 27.8721 15.1485 24.2027 15.4688L24.202 2.90307ZM21.3403 16.1809C20.5985 16.5401 19.7791 16.7804 19.0105 17.1949C16.8324 18.3696 15.1679 19.7389 13.7428 21.7904C12.2267 23.9727 10.3212 29.2221 12.4674 31.8993C13.5026 33.1907 12.9985 31.8132 13.5895 34.1511C14.2706 36.8454 14.8669 39.148 15.8231 41.7863C16.9229 44.8213 17.9865 46.8809 20.1615 49.004C20.4222 49.2585 20.8288 49.5406 20.9714 49.7606C19.3656 54.357 20.7213 53.2311 16.5179 54.7856C15.348 55.2182 14.1826 55.6464 13.0091 56.076C12.3773 56.3074 11.8731 56.4996 11.6672 57.1355C11.437 57.8464 11.7975 58.49 12.1853 58.7581C13.0995 59.3901 14.8706 58.4452 15.8203 58.088C16.9896 57.6484 18.0818 57.2517 19.2582 56.8149C21.1928 56.0966 20.4516 56.1224 22.5636 57.0872C23.6148 57.5675 24.7904 58.046 25.7838 58.5724L25.7838 71.1979L14.6761 71.1973C14.6168 70.5175 14.2409 66.5695 13.9214 66.0879C13.2735 65.1111 11.0097 64.745 11.3797 67.7378C11.5196 68.8696 11.7049 70.064 11.7945 71.1993L3.40103 71.1911C3.1498 68.9573 2.25854 66.0456 3.46352 64.128C4.00982 63.2586 4.64465 62.7281 5.59295 62.1693C6.50625 61.6311 7.39106 61.327 8.3439 60.8332C9.37866 60.297 9.31197 58.7612 8.30492 58.2813C7.43578 57.8671 6.07184 58.6959 5.33073 59.0632C3.32424 60.0577 1.94616 61.0714 0.914423 62.8238C-0.35361 64.9776 -0.0442294 67.2246 0.318084 69.8347C0.41314 70.5194 0.697629 72.8548 0.925483 73.3017C1.45307 74.3366 2.90167 74.0515 4.29398 74.0515H69.7085C70.7302 74.0515 72.8217 74.3011 73.4871 73.7147C73.9599 73.2981 74.0068 72.9658 74.0034 72.1584C73.9089 49.7587 74.0017 27.2146 74.0017 4.78817C74.0017 -0.0444155 74.4441 0.0505656 70.5973 0.0505656H25.6248C23.1103 0.0505656 21.3332 -0.487021 21.338 1.94351L21.3403 16.1809Z" fill="white"/>
</svg>
