<svg width="104" height="126" viewBox="0 0 104 126" fill="none" xmlns="http://www.w3.org/2000/svg">
<path d="M100.619 67.6653L92.5549 65.4269C91.6173 60.95 89.742 56.8461 87.3041 52.9288L91.4297 45.6538C91.8048 45.0942 91.6173 44.348 91.2422 43.9749L83.1785 35.9538C82.8035 35.5807 82.0534 35.3942 81.4908 35.7672L77.5527 37.8192L74.9273 35.9538C76.6151 32.5961 77.3652 28.6788 77.3652 24.948C77.3652 15.4345 72.1144 6.66723 63.6756 2.1903C62.738 1.63069 61.6128 2.37684 61.6128 3.49607V23.8288L51.1113 28.4922L40.6097 24.0153V3.68261C40.6097 2.56338 39.4846 2.00377 38.5469 2.37684C30.1082 7.04031 25.045 15.8076 25.045 25.1346C25.045 29.2384 25.9826 33.1557 27.6703 36.5134L25.6075 37.8192L21.6695 35.7672C21.1069 35.3942 20.3568 35.5807 19.9817 35.9538L11.918 43.9749C11.543 44.348 11.3554 45.0942 11.7305 45.6538L15.8561 52.9288C13.4182 56.8461 11.7305 60.95 10.6053 65.4269L2.54164 67.6653C1.97906 67.8519 1.604 68.4115 1.604 68.9711V80.35C1.604 80.9096 1.97906 81.4692 2.54164 81.6557L10.6053 83.8942C11.543 88.3711 13.4182 92.475 15.8561 96.3923L11.918 104.04C11.543 104.6 11.7305 105.346 12.1055 105.719L20.1692 113.74C20.5443 114.113 21.2944 114.3 21.857 113.927L29.1706 109.823C33.1086 112.248 37.2343 113.927 41.7349 115.046L43.9852 123.067C44.1728 123.627 44.7354 124 45.2979 124H57.6748C58.2373 124 58.7999 123.627 58.9875 123.067L61.2378 115.046C65.7384 114.113 69.8641 112.248 73.8021 109.823L81.1157 113.927C81.6783 114.3 82.4284 114.113 82.8035 113.74L90.8672 105.719C91.2422 105.346 91.4297 104.6 91.0547 104.04L87.3041 96.5788C89.742 92.6615 91.4297 88.5577 92.5549 84.0807L100.619 81.8423C101.181 81.6557 101.556 81.0961 101.556 80.5365V69.1577C101.744 68.4115 101.369 67.8519 100.619 67.6653V67.6653ZM37.7968 5.92108V24.5749C37.7968 25.1346 38.1719 25.6942 38.7345 25.8807L50.7362 31.1038C51.1113 31.2903 51.4863 31.2903 51.8614 31.1038L63.8632 25.8807C64.4258 25.6942 64.6133 25.1346 64.6133 24.5749V5.92108C70.8017 10.2115 74.5522 17.2999 74.7398 24.948C74.7398 33.3422 70.2391 41.1769 62.738 45.2807C62.363 45.4673 61.9879 46.0269 61.9879 46.5865V88.9308C59.175 90.9827 55.987 92.1019 52.424 92.2884C48.1109 92.475 44.1728 90.9827 40.9848 88.3711V46.773C40.9848 46.2134 40.7973 45.8403 40.2347 45.4673C32.7336 41.3634 28.0454 33.5288 28.0454 25.1346C27.8579 17.2999 31.6084 10.2115 37.7968 5.92108V5.92108ZM64.6133 86.1327V63.748C70.2391 70.0904 70.4266 79.6038 64.6133 86.1327ZM34.4213 74.9404C34.4213 71.2096 35.734 67.4788 37.9844 64.6807V85.3865C35.734 82.2154 34.4213 78.4846 34.4213 74.9404ZM98.9308 79.4173L91.0547 81.6557C90.4921 81.8423 90.117 82.2154 90.117 82.775C89.1794 87.4384 87.3041 91.7288 84.6787 95.8327C84.3037 96.2058 84.3037 96.7654 84.6787 97.325L88.6168 104.413L82.0534 110.942L74.9273 107.025C74.5522 106.838 73.9897 106.838 73.4271 107.025C69.3015 109.637 64.9883 111.502 60.3001 112.435C59.7376 112.621 59.3625 112.994 59.175 113.367L56.9246 121.202H46.6106L44.3603 113.367C44.1728 112.808 43.7977 112.435 43.2351 112.435C38.5469 111.502 34.2338 109.637 30.1082 107.025C29.7331 106.652 29.1706 106.652 28.608 107.025L21.4819 110.942L14.9185 104.413L18.8565 97.325C19.0441 96.9519 19.0441 96.3923 18.8565 95.8327C16.2312 91.7288 14.3559 87.4384 13.4182 82.775C13.2307 82.2154 12.8557 81.8423 12.4806 81.6557L4.60445 79.4173V70.0903L12.4806 67.8519C13.0432 67.6653 13.4182 67.2923 13.4182 66.7327C14.3559 62.0692 16.2312 57.7788 18.8565 53.675C19.2316 53.3019 19.2316 52.7423 18.8565 52.1826L14.9185 45.0942L21.4819 38.5653L25.2325 40.6173C25.6075 40.8038 26.3576 40.8038 26.7327 40.6173L29.1706 38.9384C31.4209 42.2961 34.4213 45.2807 37.9844 47.3326V60.3903C34.0463 64.1211 31.6084 69.3442 31.6084 74.9404C31.6084 83.8942 37.7968 91.9154 46.7982 94.3404C67.6137 99.5634 80.5531 73.2615 64.6133 59.8307V47.3326C68.3638 45.0942 71.3643 42.1096 73.6146 38.5653L76.8026 40.8038C77.1776 41.1769 77.7402 41.1769 78.3028 40.8038L82.0534 38.7519L88.6168 45.2807L84.6787 52.3692C84.4912 52.7423 84.4912 53.3019 84.6787 53.8615C87.3041 57.9653 89.1794 62.2557 90.117 66.9192C90.3046 67.4788 90.6796 67.8519 91.0547 68.0384L98.9308 70.2769V79.4173V79.4173Z" fill="#000100" stroke="#FF0000" stroke-width="3"/>
</svg>
