<svg width="82" height="112" viewBox="0 0 82 112" fill="none" xmlns="http://www.w3.org/2000/svg">
<path d="M78.875 19.0417V100.167C78.875 105.208 74.75 109.333 69.7083 109.333H11.7292C6.6875 109.333 2.5625 105.208 2.5625 100.167V19.0417C2.5625 14 6.6875 9.875 11.7292 9.875H23.4167V12.1667C23.4167 14.6875 25.4792 16.75 28 16.75H53.4375C55.9583 16.75 58.0208 14.6875 58.0208 12.1667V9.875H69.7083C74.75 9.875 78.875 14 78.875 19.0417Z" stroke="#FF0000" stroke-width="5" stroke-miterlimit="10" stroke-linecap="round" stroke-linejoin="round"/>
<path d="M53.4375 16.75H27.7708C25.25 16.75 23.1875 14.6875 23.1875 12.1667V7.58333C23.1875 5.0625 25.25 3 27.7708 3H53.4375C55.9583 3 58.0208 5.0625 58.0208 7.58333V12.3958C58.0208 14.6875 55.9583 16.75 53.4375 16.75Z" stroke="#FF0000" stroke-width="5" stroke-miterlimit="10" stroke-linecap="round" stroke-linejoin="round"/>
<path d="M40.6041 60.5207C48.8308 60.5207 55.4999 53.8516 55.4999 45.6248C55.4999 37.3981 48.8308 30.729 40.6041 30.729C32.3773 30.729 25.7083 37.3981 25.7083 45.6248C25.7083 53.8516 32.3773 60.5207 40.6041 60.5207Z" stroke="#FF0000" stroke-width="5" stroke-miterlimit="10" stroke-linecap="round" stroke-linejoin="round"/>
<path d="M40.6041 30.729V45.6248H25.7083" stroke="#FF0000" stroke-width="5" stroke-miterlimit="10" stroke-linecap="round" stroke-linejoin="round"/>
<path d="M40.604 45.625L51.1457 56.1667" stroke="#FF0000" stroke-width="5" stroke-miterlimit="10" stroke-linecap="round" stroke-linejoin="round"/>
<path d="M19.0623 87.104H11.729V95.354H19.0623V87.104Z" stroke="#FF0000" stroke-width="5" stroke-miterlimit="10" stroke-linecap="round" stroke-linejoin="round"/>
<path d="M35.7916 74.958H28.4583V95.3538H35.7916V74.958Z" stroke="#FF0000" stroke-width="5" stroke-miterlimit="10" stroke-linecap="round" stroke-linejoin="round"/>
<path d="M52.7498 81.833H45.4165V95.583H52.7498V81.833Z" stroke="#FF0000" stroke-width="5" stroke-miterlimit="10" stroke-linecap="round" stroke-linejoin="round"/>
<path d="M69.4791 67.854H62.1458V95.5832H69.4791V67.854Z" stroke="#FF0000" stroke-width="5" stroke-miterlimit="10" stroke-linecap="round" stroke-linejoin="round"/>
</svg>
