<svg width="125" height="125" viewBox="0 0 125 125" fill="none" xmlns="http://www.w3.org/2000/svg">
<path d="M114.989 53.7624L100.676 40.5147C97.5455 37.6177 93.437 36.009 89.1719 36.0101H81.8578V34.5327C81.8566 31.3215 80.5805 28.2421 78.3098 25.9714C76.0391 23.7007 72.9597 22.4245 69.7484 22.4233H16.8789C13.6677 22.4245 10.5883 23.7007 8.31756 25.9714C6.04686 28.2421 4.77069 31.3215 4.76953 34.5327V88.7585C4.77138 89.4003 5.02714 90.0152 5.48093 90.469C5.93472 90.9228 6.54965 91.1785 7.19141 91.1804H14.7477C15.2539 94.18 16.8063 96.9033 19.1294 98.8672C21.4526 100.831 24.3963 101.909 27.4383 101.909C30.4803 101.909 33.424 100.831 35.7471 98.8672C38.0703 96.9033 39.6227 94.18 40.1289 91.1804H85.2242C85.7304 94.18 87.2828 96.9033 89.606 98.8672C91.9291 100.831 94.8728 101.909 97.9148 101.909C100.957 101.909 103.901 100.831 106.224 98.8672C108.547 96.9033 110.099 94.18 110.605 91.1804H117.992C118.634 91.1785 119.249 90.9228 119.703 90.469C120.156 90.0152 120.412 89.4003 120.414 88.7585V66.2108C120.422 63.8732 119.944 61.5593 119.01 59.4163C118.076 57.2733 116.707 55.3479 114.989 53.7624V53.7624ZM111.695 57.3226H97.3578V44.0507L97.382 44.0749L111.695 57.3226ZM16.8789 27.2671H69.7484C71.6737 27.2727 73.5184 28.04 74.8798 29.4014C76.2411 30.7627 77.0084 32.6075 77.0141 34.5327V43.2757V62.2632V62.6022H9.61328V34.5327C9.6189 32.6075 10.3862 30.7627 11.7475 29.4014C13.1089 28.04 14.9537 27.2727 16.8789 27.2671V27.2671ZM27.4383 97.0655C25.8528 97.0655 24.3029 96.5954 22.9846 95.7145C21.6663 94.8337 20.6388 93.5817 20.0321 92.1169C19.4253 90.6521 19.2666 89.0402 19.5759 87.4852C19.8852 85.9302 20.6487 84.5018 21.7698 83.3807C22.8909 82.2596 24.3193 81.4961 25.8744 81.1868C27.4294 80.8774 29.0412 81.0362 30.506 81.6429C31.9708 82.2497 33.2228 83.2772 34.1037 84.5954C34.9845 85.9137 35.4547 87.4636 35.4547 89.0491C35.4522 91.1744 34.6068 93.212 33.104 94.7148C31.6011 96.2176 29.5636 97.063 27.4383 97.0655V97.0655ZM27.4383 76.1647C24.4936 76.1688 21.6388 77.18 19.348 79.0302C17.0571 80.8805 15.468 83.4587 14.8445 86.3366H9.61328V67.446H77.0141V86.3366H40.032C39.4119 83.457 37.8237 80.8767 35.5321 79.0258C33.2406 77.175 30.384 76.1652 27.4383 76.1647ZM97.9148 97.0655C96.3293 97.0655 94.7794 96.5954 93.4612 95.7145C92.1429 94.8337 91.1154 93.5817 90.5086 92.1169C89.9019 90.6521 89.7431 89.0402 90.0525 87.4852C90.3618 85.9302 91.1253 84.5018 92.2464 83.3807C93.3675 82.2596 94.7959 81.4961 96.3509 81.1868C97.9059 80.8774 99.5178 81.0362 100.983 81.6429C102.447 82.2497 103.699 83.2772 104.58 84.5954C105.461 85.9137 105.931 87.4636 105.931 89.0491C105.929 91.1744 105.083 93.212 103.581 94.7148C102.078 96.2176 100.04 97.063 97.9148 97.0655V97.0655ZM115.595 86.3366H110.509C109.889 83.4567 108.301 80.8761 106.009 79.025C103.718 77.174 100.861 76.1643 97.9148 76.1643C94.969 76.1643 92.1121 77.174 89.8204 79.025C87.5287 80.8761 85.9407 83.4567 85.3211 86.3366H81.8578V62.2632V40.8538H89.1719C90.3014 40.859 91.4252 41.0137 92.5141 41.314V57.3226C92.5178 58.606 93.0294 59.8359 93.9369 60.7434C94.8445 61.651 96.0743 62.1625 97.3578 62.1663H114.892C115.358 63.4638 115.596 64.8322 115.595 66.2108V86.3366Z" fill="#FF0000" stroke="#FF0000"/>
<path d="M27.4384 82.1468C26.0781 82.1468 24.7483 82.5502 23.6171 83.306C22.486 84.0617 21.6045 85.136 21.0839 86.3928C20.5633 87.6496 20.4271 89.0325 20.6925 90.3668C20.9579 91.701 21.6129 92.9266 22.5749 93.8885C23.5368 94.8504 24.7623 95.5055 26.0966 95.7709C27.4308 96.0363 28.8138 95.9001 30.0706 95.3795C31.3274 94.8589 32.4016 93.9773 33.1574 92.8462C33.9132 91.7151 34.3166 90.3853 34.3166 89.0249C34.3137 87.2016 33.5881 85.4538 32.2988 84.1645C31.0095 82.8753 29.2617 82.1497 27.4384 82.1468V82.1468ZM27.4384 91.0835C27.0361 91.0835 26.6427 90.9642 26.3082 90.7407C25.9736 90.5171 25.7129 90.1994 25.5589 89.8277C25.4049 89.4559 25.3646 89.0469 25.4431 88.6523C25.5216 88.2576 25.7154 87.8951 25.9999 87.6106C26.2844 87.3261 26.6469 87.1324 27.0415 87.0539C27.4362 86.9754 27.8452 87.0156 28.217 87.1696C28.5887 87.3236 28.9064 87.5844 29.13 87.9189C29.3535 88.2535 29.4728 88.6468 29.4728 89.0491C29.4696 89.5877 29.2542 90.1033 28.8734 90.4841C28.4926 90.8649 27.977 91.0803 27.4384 91.0835V91.0835ZM97.915 82.1468C96.5546 82.1468 95.2248 82.5502 94.0937 83.306C92.9626 84.0617 92.081 85.136 91.5604 86.3928C91.0398 87.6496 90.9036 89.0325 91.169 90.3668C91.4344 91.701 92.0895 92.9266 93.0514 93.8885C94.0133 94.8504 95.2389 95.5055 96.5731 95.7709C97.9074 96.0363 99.2903 95.9001 100.547 95.3795C101.804 94.8589 102.878 93.9773 103.634 92.8462C104.39 91.7151 104.793 90.3853 104.793 89.0249C104.79 87.2016 104.065 85.4538 102.775 84.1645C101.486 82.8753 99.7383 82.1497 97.915 82.1468V82.1468ZM97.915 91.0835C97.5126 91.0835 97.1193 90.9642 96.7848 90.7407C96.4502 90.5171 96.1894 90.1994 96.0355 89.8277C95.8815 89.4559 95.8412 89.0469 95.9197 88.6523C95.9982 88.2576 96.192 87.8951 96.4765 87.6106C96.761 87.3261 97.1235 87.1324 97.5181 87.0539C97.9127 86.9754 98.3218 87.0156 98.6935 87.1696C99.0652 87.3236 99.383 87.5844 99.6065 87.9189C99.83 88.2535 99.9494 88.6468 99.9494 89.0491C99.9461 89.5877 99.7308 90.1033 99.3499 90.4841C98.9691 90.8649 98.4535 91.0803 97.915 91.0835ZM38.2158 51.6069C38.44 51.8359 38.7075 52.018 39.0027 52.1427C39.2979 52.2674 39.6149 52.3323 39.9353 52.3335V52.3335C40.5774 52.3288 41.1931 52.0773 41.6548 51.6312L53.3041 39.9819C53.7569 39.5291 54.0113 38.9149 54.0113 38.2745C54.0113 37.6341 53.7569 37.0199 53.3041 36.5671C52.8512 36.1143 52.237 35.8599 51.5966 35.8599C50.9562 35.8599 50.342 36.1143 49.8892 36.5671L39.9595 46.4968L35.14 41.5804C34.6904 41.1243 34.078 40.8656 33.4376 40.861C32.7972 40.8565 32.1812 41.1065 31.7251 41.5562C31.2691 42.0058 31.0103 42.6182 31.0058 43.2586C31.0013 43.899 31.2513 44.515 31.7009 44.971L38.2158 51.6069Z" fill="black"/>
</svg>
