<svg width="124" height="123" viewBox="0 0 124 123" fill="none" xmlns="http://www.w3.org/2000/svg">
<path d="M97.7378 68.7352C102.441 57.5205 104.973 45.7632 104.973 34.1867V25.8661C104.973 25.1426 104.611 24.4191 103.888 24.2382L54.3261 1.98967C53.7834 1.80878 53.2408 1.80878 52.879 1.98967L3.49814 24.0573C2.77461 24.4191 2.41284 25.1426 2.41284 25.8661V34.1867C2.41284 87.1852 52.1555 120.648 52.6981 121.01C53.0599 121.191 53.4217 121.372 53.7834 121.372C54.1452 121.372 54.507 121.191 54.8687 121.01C55.2305 120.829 62.2849 116.126 71.329 107.263C75.8511 115.584 84.8952 121.372 95.2055 121.372C109.676 121.191 121.795 109.434 121.795 94.9632C121.795 81.397 111.304 70.1823 97.7378 68.7352ZM53.6025 117.212C46.729 112.147 6.03049 81.2161 6.03049 34.1867V26.9514L53.6025 5.60731L101.175 26.9514V34.1867C101.175 45.9441 98.6423 57.5205 93.7584 68.7352C90.5026 68.7352 87.4276 69.4588 84.5334 70.5441C90.6834 58.6058 93.7584 46.4867 93.7584 34.0058V32.9205C93.7584 32.197 93.3967 31.4735 92.6731 31.2926L54.3261 14.1088C53.7834 13.9279 53.2408 13.9279 52.879 14.1088L14.7128 31.2926C13.9893 31.6544 13.6275 32.197 13.6275 32.9205V34.0058C13.6275 70.3632 40.9408 96.9529 52.5173 106.721C52.879 107.082 53.2408 107.082 53.6025 107.082C53.9643 107.082 54.507 106.901 54.6878 106.721C58.1246 103.826 62.8276 99.6661 67.8923 94.0588C67.8923 94.2397 67.8923 94.4205 67.8923 94.7823C67.8923 97.8573 68.4349 100.751 69.3393 103.465C62.2849 110.7 55.954 115.403 53.6025 117.212ZM69.1584 87.547C63.5511 94.4205 57.9437 99.6661 53.7834 103.103C41.8452 92.9735 17.2452 67.8308 17.2452 34.1867L53.7834 17.7264L90.3217 34.1867C90.3217 47.7529 86.3423 61.1382 78.7452 74.1617C74.0423 77.4176 70.7864 82.1205 69.1584 87.547ZM94.8437 117.573C82.0011 117.573 71.5099 107.444 71.5099 94.9632C71.5099 82.4823 82.0011 72.172 94.8437 72.172C107.686 72.172 118.178 82.3014 118.178 94.7823C118.178 107.263 107.686 117.573 94.8437 117.573Z" fill="#FF0000" stroke="#FF0000"/>
<path d="M79.6496 56.4354C80.7348 56.4354 81.4584 55.7119 81.4584 54.6266C81.4584 53.5413 80.7348 52.8178 79.6496 52.8178H27.7363C26.651 52.8178 25.9275 53.5413 25.9275 54.6266C25.9275 55.7119 26.651 56.4354 27.7363 56.4354H51.7937V78.5031H50.1657C49.0804 78.5031 48.3569 79.2266 48.3569 80.3119C48.3569 81.3972 49.0804 82.1207 50.1657 82.1207H57.0393C58.1246 82.1207 58.8481 81.3972 58.8481 80.3119C58.8481 79.2266 58.1246 78.5031 57.0393 78.5031H55.4113V56.4354H79.6496ZM34.7907 50.8281C38.7701 50.8281 41.8451 47.5722 41.8451 43.7737C41.8451 39.9751 38.5893 36.7192 34.7907 36.7192C30.9922 36.7192 27.7363 39.7942 27.7363 43.5928C27.7363 47.3913 30.9922 50.8281 34.7907 50.8281ZM34.7907 40.156C36.7804 40.156 38.2275 41.7839 38.2275 43.5928C38.2275 45.4016 36.5995 47.0295 34.7907 47.0295C32.9819 47.0295 31.354 45.5825 31.354 43.5928C31.354 41.6031 32.9819 40.156 34.7907 40.156ZM72.4143 50.8281C76.3937 50.8281 79.4687 47.5722 79.4687 43.7737C79.4687 39.9751 76.2128 36.7192 72.4143 36.7192C68.6157 36.7192 65.3598 39.9751 65.3598 43.7737C65.3598 47.5722 68.6157 50.8281 72.4143 50.8281ZM72.4143 40.156C74.404 40.156 75.851 41.7839 75.851 43.5928C75.851 45.4016 74.2231 47.0295 72.4143 47.0295C70.6054 47.0295 68.9775 45.4016 68.9775 43.5928C68.9775 41.7839 70.6054 40.156 72.4143 40.156ZM96.8334 92.0692L96.6525 84.2913C98.8231 84.6531 100.813 85.3766 102.622 86.6428L105.335 82.8442C102.622 81.0354 99.7275 79.9501 96.6525 79.7692V77.7795H93.9393V79.7692C91.226 79.9501 89.0554 80.6736 87.4275 82.3016C85.7996 83.7486 84.8951 85.7384 84.8951 88.0898C84.8951 90.4413 85.6187 92.2501 87.0657 93.5163C88.5128 94.7825 90.8643 95.6869 93.9393 96.4104V104.369C91.4069 104.007 89.0554 102.741 86.704 100.752L83.629 104.369C86.704 106.902 90.1407 108.53 93.9393 108.891V111.966H96.6525V109.072C99.5466 108.891 101.717 108.168 103.526 106.54C105.335 105.093 106.058 103.103 106.058 100.571C106.058 98.2192 105.335 96.4104 103.888 94.9634C102.26 93.8781 99.9084 92.9737 96.8334 92.0692ZM93.9393 91.3457C92.3113 90.8031 91.4069 90.2604 90.6834 89.7178C90.1407 89.1751 89.779 88.4516 89.779 87.5472C89.779 86.6428 90.1407 85.9192 90.8643 85.1957C91.5878 84.6531 92.4922 84.2913 93.7584 84.1104V91.3457H93.9393ZM99.7275 103.465C99.004 104.188 97.9187 104.55 96.4716 104.55V97.1339C98.0996 97.6766 99.3657 98.2192 99.9084 98.7619C100.451 99.3045 100.813 100.028 100.813 101.113C100.813 102.199 100.632 102.922 99.7275 103.465Z" fill="#FF0000"/>
</svg>
